<svg width="420" height="290" viewBox="0 0 420 290" fill="none" xmlns="http://www.w3.org/2000/svg">
<g clip-path="url(#clip0_1046_2)">
<path d="M-0.865102 253.059L56.4998 244L67.3465 261.136L162.083 256.445L56.4998 290.499H-0.865326L-0.865102 253.059Z" fill="#D2D2D2" fill-opacity="0.7"/>
<path d="M420 261.5L373.5 237L401 134L420 152.5V261.5Z" fill="#BAD3E9"/>
<path d="M419.999 -3.50009V42.9991L384.5 54.499L370.5 32.9995L278.5 33L377.5 -3.49966L419.999 -3.50009Z" fill="#D2D2D2"/>
<path d="M-0.851608 -1.311L68.4971 51.1895L-0.848739 209.688L-0.851608 -1.311Z" fill="#BAD3E9"/>
<path d="M1 125.5L28 161.5H56.5L75 193.5L1 239V125.5Z" fill="#BAD3E9"/>
<path d="M-1.07839 -4.0265H157.422L41.9214 51.4746L-1.07961 22.9756L-1.07839 -4.0265Z" fill="url(#paint0_linear_1046_2)"/>
<path d="M56 161.626V236.886L0 270V125L27.0345 161.626H56Z" fill="url(#paint1_linear_1046_2)"/>
<path d="M-2.5 67L72.5 91V144L31.5 153L-2.5 113.5V67Z" fill="#D9D9D9" fill-opacity="0.7"/>
<path d="M420 220.5L370 204V156.5L390 147L420 191.5V220.5Z" fill="#D9D9D9" fill-opacity="0.7"/>
<path d="M58 186.5L74.5 193.5L64 208L58 186.5Z" fill="url(#paint2_linear_1046_2)"/>
<path d="M419 176L389.081 136.987H357.5L337 102.308L419 53V176Z" fill="#BAD3E9"/>
<path d="M357 136.595V55.6263L420 20V176L389.586 136.595H357Z" fill="url(#paint3_linear_1046_2)"/>
<path d="M355 110L337 102.512L348.455 87L355 110Z" fill="url(#paint4_linear_1046_2)"/>
<path d="M73 52L89 56.2326L77 63L73 52Z" fill="#BAD3E9"/>
<path d="M363 220L372 216V226.5L363 220Z" fill="#BAD3E9"/>
<path d="M41 52L72.5 56.5L45 74.5L41 52Z" fill="url(#paint5_linear_1046_2)"/>
<path d="M372 223L395.5 213L392 227.5L372 223Z" fill="url(#paint6_linear_1046_2)"/>
<path d="M420 289.5H246.5L391 226.5L420 253.5V289.5Z" fill="url(#paint7_linear_1046_2)" fill-opacity="0.7"/>
</g>
<defs>
<linearGradient id="paint0_linear_1046_2" x1="-5.99999" y1="15.5" x2="230.5" y2="10.5" gradientUnits="userSpaceOnUse">
<stop stop-color="#E494B3"/>
<stop offset="1" stop-color="#E7CA7C"/>
</linearGradient>
<linearGradient id="paint1_linear_1046_2" x1="-28.5" y1="209" x2="55.5846" y2="216.291" gradientUnits="userSpaceOnUse">
<stop stop-color="#DEA1B7"/>
<stop offset="1" stop-color="#E7C97C" stop-opacity="0.7"/>
</linearGradient>
<linearGradient id="paint2_linear_1046_2" x1="60" y1="187" x2="75" y2="208" gradientUnits="userSpaceOnUse">
<stop stop-color="#E395B1"/>
<stop offset="1" stop-color="#EBBB57"/>
</linearGradient>
<linearGradient id="paint3_linear_1046_2" x1="452.063" y1="85.6276" x2="357.533" y2="77.0567" gradientUnits="userSpaceOnUse">
<stop stop-color="#DEA1B7"/>
<stop offset="1" stop-color="#E7C97C" stop-opacity="0.7"/>
</linearGradient>
<linearGradient id="paint4_linear_1046_2" x1="352.818" y1="109.465" x2="336.876" y2="86.7049" gradientUnits="userSpaceOnUse">
<stop stop-color="#E395B1"/>
<stop offset="1" stop-color="#EBBB57"/>
</linearGradient>
<linearGradient id="paint5_linear_1046_2" x1="43" y1="52.5" x2="58" y2="73.5" gradientUnits="userSpaceOnUse">
<stop stop-color="#E395B1"/>
<stop offset="1" stop-color="#EBBB57"/>
</linearGradient>
<linearGradient id="paint6_linear_1046_2" x1="390" y1="210.5" x2="405" y2="231.5" gradientUnits="userSpaceOnUse">
<stop stop-color="#E395B1"/>
<stop offset="1" stop-color="#EBBB57"/>
</linearGradient>
<linearGradient id="paint7_linear_1046_2" x1="237" y1="289" x2="420" y2="255.5" gradientUnits="userSpaceOnUse">
<stop stop-color="#E496B0"/>
<stop offset="0.997758" stop-color="#E7CA7C"/>
</linearGradient>
<clipPath id="clip0_1046_2">
<rect width="420" height="290" fill="white"/>
</clipPath>
</defs>
</svg>
