<svg xmlns="http://www.w3.org/2000/svg" xmlns:xlink="http://www.w3.org/1999/xlink" width="1440" zoomAndPan="magnify" viewBox="0 0 1080 767.999994" height="1024" preserveAspectRatio="xMidYMid meet" version="1.0"><defs><filter x="0%" y="0%" width="100%" height="100%" id="1bb3bf5339"><feColorMatrix values="0 0 0 0 1 0 0 0 0 1 0 0 0 0 1 0 0 0 1 0" color-interpolation-filters="sRGB"/></filter><g/><mask id="dc22caf52b"><g filter="url(#1bb3bf5339)"><rect x="-108" width="1296" fill="#000000" y="-76.799999" height="921.599993" fill-opacity="0.5"/></g></mask><clipPath id="07613dba00"><path d="M 0 0.199219 L 45.359375 0.199219 L 45.359375 260.839844 L 0 260.839844 Z M 0 0.199219 " clip-rule="nonzero"/></clipPath><clipPath id="48db1452cf"><path d="M 24.53125 0.335938 L 45.296875 15.558594 L -134.382812 260.664062 L -155.144531 245.445312 Z M 24.53125 0.335938 " clip-rule="nonzero"/></clipPath><clipPath id="4862fb1ab9"><path d="M 24.53125 0.335938 L 45.296875 15.558594 L -134.339844 260.609375 L -155.105469 245.386719 Z M 24.53125 0.335938 " clip-rule="nonzero"/></clipPath><clipPath id="0e19cf447e"><rect x="0" width="46" y="0" height="261"/></clipPath><mask id="e691302208"><g filter="url(#1bb3bf5339)"><rect x="-108" width="1296" fill="#000000" y="-76.799999" height="921.599993" fill-opacity="0.73"/></g></mask><clipPath id="9fa045d0d2"><path d="M 0 0.0390625 L 161.761719 0.0390625 L 161.761719 223 L 0 223 Z M 0 0.0390625 " clip-rule="nonzero"/></clipPath><clipPath id="8b02e2eeef"><path d="M -57.679688 0.179688 L 161.714844 168.351562 L 119.957031 222.828125 L -99.4375 54.652344 Z M -57.679688 0.179688 " clip-rule="nonzero"/></clipPath><clipPath id="4f3ae8535d"><path d="M -57.679688 0.179688 L 161.558594 168.230469 L 119.800781 222.707031 L -99.4375 54.652344 Z M -57.679688 0.179688 " clip-rule="nonzero"/></clipPath><clipPath id="23c72d759f"><rect x="0" width="162" y="0" height="223"/></clipPath><clipPath id="91cd356291"><path d="M 0 88 L 223 88 L 223 276 L 0 276 Z M 0 88 " clip-rule="nonzero"/></clipPath><clipPath id="939395ced5"><path d="M 3.445312 88.464844 L 222.730469 256.558594 L 208.253906 275.4375 L -11.03125 107.347656 Z M 3.445312 88.464844 " clip-rule="nonzero"/></clipPath><clipPath id="cb5f1d09c0"><path d="M 3.445312 88.464844 L 222.679688 256.519531 L 208.207031 275.402344 L -11.03125 107.347656 Z M 3.445312 88.464844 " clip-rule="nonzero"/></clipPath><clipPath id="36960184e2"><path d="M 0 0 L 131 0 L 131 164 L 0 164 Z M 0 0 " clip-rule="nonzero"/></clipPath><clipPath id="b94b0938f2"><path d="M -88.742188 -59.195312 L 130.652344 108.980469 L 88.894531 163.453125 L -130.5 -4.71875 Z M -88.742188 -59.195312 " clip-rule="nonzero"/></clipPath><clipPath id="47a86ef738"><path d="M -88.742188 -59.195312 L 130.496094 108.859375 L 88.738281 163.335938 L -130.5 -4.71875 Z M -88.742188 -59.195312 " clip-rule="nonzero"/></clipPath><clipPath id="12e53c1fad"><path d="M 0 0 L 187 0 L 187 164 L 0 164 Z M 0 0 " clip-rule="nonzero"/></clipPath><clipPath id="352ac0e13c"><path d="M -32.539062 -32.324219 L 186.796875 135.804688 L 165.636719 163.410156 L -53.699219 -4.71875 Z M -32.539062 -32.324219 " clip-rule="nonzero"/></clipPath><clipPath id="7e792d6fc1"><path d="M -32.539062 -32.324219 L 186.699219 135.730469 L 165.539062 163.335938 L -53.699219 -4.71875 Z M -32.539062 -32.324219 " clip-rule="nonzero"/></clipPath><clipPath id="1a156ba304"><path d="M 0 0 L 77 0 L 77 39 L 0 39 Z M 0 0 " clip-rule="nonzero"/></clipPath><clipPath id="590b472fec"><path d="M -142.4375 -157.023438 L 76.898438 11.105469 L 55.734375 38.710938 L -163.597656 -129.417969 Z M -142.4375 -157.023438 " clip-rule="nonzero"/></clipPath><clipPath id="9f62a04d55"><path d="M -142.4375 -157.023438 L 76.800781 11.027344 L 55.640625 38.636719 L -163.597656 -129.417969 Z M -142.4375 -157.023438 " clip-rule="nonzero"/></clipPath><mask id="eefb8d29b9"><g filter="url(#1bb3bf5339)"><rect x="-108" width="1296" fill="#000000" y="-76.799999" height="921.599993" fill-opacity="0.5"/></g></mask><clipPath id="48c8ce9b65"><path d="M 0 0 L 175.679688 0 L 175.679688 88.558594 L 0 88.558594 Z M 0 0 " clip-rule="nonzero"/></clipPath><clipPath id="b30ca90f7a"><path d="M -43.84375 -107.191406 L 175.492188 60.933594 L 154.332031 88.539062 L -65.003906 -79.585938 Z M -43.84375 -107.191406 " clip-rule="nonzero"/></clipPath><clipPath id="c65d4f74d5"><path d="M -43.84375 -107.191406 L 175.394531 60.859375 L 154.234375 88.464844 L -65.003906 -79.585938 Z M -43.84375 -107.191406 " clip-rule="nonzero"/></clipPath><clipPath id="34e56e959d"><rect x="0" width="176" y="0" height="89"/></clipPath><clipPath id="a34414d9d4"><path d="M 175 76 L 306 76 L 306 189 L 175 189 Z M 175 76 " clip-rule="nonzero"/></clipPath><clipPath id="667aa24eed"><path d="M 196.554688 76.804688 L 305.789062 160.535156 L 284.628906 188.140625 L 175.394531 104.410156 Z M 196.554688 76.804688 " clip-rule="nonzero"/></clipPath><clipPath id="52dd3188d2"><path d="M 196.554688 76.804688 L 305.789062 160.535156 L 284.628906 188.140625 L 175.394531 104.410156 Z M 196.554688 76.804688 " clip-rule="nonzero"/></clipPath><clipPath id="f3fffefc7d"><path d="M 76 0 L 208 0 L 208 39 L 76 39 Z M 76 0 " clip-rule="nonzero"/></clipPath><clipPath id="5df77eb360"><path d="M 97.960938 -72.699219 L 207.195312 11.03125 L 186.035156 38.636719 L 76.796875 -45.09375 Z M 97.960938 -72.699219 " clip-rule="nonzero"/></clipPath><clipPath id="6aeea15367"><path d="M 97.960938 -72.699219 L 207.195312 11.03125 L 186.035156 38.636719 L 76.796875 -45.09375 Z M 97.960938 -72.699219 " clip-rule="nonzero"/></clipPath><clipPath id="2a56c6914f"><path d="M 234 48 L 362 48 L 362 156 L 234 156 Z M 234 48 " clip-rule="nonzero"/></clipPath><clipPath id="ff84718ea7"><path d="M 252.5 48.800781 L 361.820312 132.601562 L 343.957031 155.902344 L 234.636719 72.105469 Z M 252.5 48.800781 " clip-rule="nonzero"/></clipPath><clipPath id="8b77e058c1"><path d="M 252.5 48.800781 L 361.734375 132.535156 L 343.871094 155.835938 L 234.636719 72.105469 Z M 252.5 48.800781 " clip-rule="nonzero"/></clipPath><clipPath id="a9bdf29032"><path d="M 198 23 L 248 23 L 248 71 L 198 71 Z M 198 23 " clip-rule="nonzero"/></clipPath><clipPath id="d9699c8601"><path d="M 216.832031 23.285156 L 247.417969 46.726562 L 229.554688 70.03125 L 198.972656 46.585938 Z M 216.832031 23.285156 " clip-rule="nonzero"/></clipPath><clipPath id="72b982eb53"><path d="M 216.832031 23.285156 L 247.410156 46.71875 L 229.546875 70.023438 L 198.972656 46.585938 Z M 216.832031 23.285156 " clip-rule="nonzero"/></clipPath><clipPath id="96500d5cd7"><path d="M 331 0 L 525 0 L 525 123 L 331 123 Z M 331 0 " clip-rule="nonzero"/></clipPath><clipPath id="3e2e2dc505"><path d="M 348.945312 -35.1875 L 524.257812 99.199219 L 506.394531 122.5 L 331.082031 -11.882812 Z M 348.945312 -35.1875 " clip-rule="nonzero"/></clipPath><clipPath id="266251458f"><path d="M 348.945312 -35.1875 L 524.179688 99.136719 L 506.316406 122.4375 L 331.082031 -11.882812 Z M 348.945312 -35.1875 " clip-rule="nonzero"/></clipPath><clipPath id="a070b3eb75"><path d="M 222 0 L 349 0 L 349 67 L 222 67 Z M 222 0 " clip-rule="nonzero"/></clipPath><clipPath id="edc6ee58e8"><path d="M 240.542969 -39.605469 L 348.589844 43.214844 L 330.726562 66.519531 L 222.679688 -16.304688 Z M 240.542969 -39.605469 " clip-rule="nonzero"/></clipPath><clipPath id="e9538d10d0"><path d="M 240.542969 -39.605469 L 348.503906 43.152344 L 330.644531 66.453125 L 222.679688 -16.304688 Z M 240.542969 -39.605469 " clip-rule="nonzero"/></clipPath><mask id="03a6063c70"><g filter="url(#1bb3bf5339)"><rect x="-108" width="1296" fill="#000000" y="-76.799999" height="921.599993" fill-opacity="0.8"/></g></mask><clipPath id="bbf5e0a692"><path d="M 0.441406 0 L 150 0 L 150 92.398438 L 0.441406 92.398438 Z M 0.441406 0 " clip-rule="nonzero"/></clipPath><clipPath id="d3b34289ec"><path d="M 29.609375 -37.988281 L 150.148438 54.410156 L 121.125 92.273438 L 0.585938 -0.125 Z M 29.609375 -37.988281 " clip-rule="nonzero"/></clipPath><clipPath id="91018cf960"><path d="M 29.609375 -37.988281 L 150.035156 54.324219 L 121.011719 92.1875 L 0.585938 -0.125 Z M 29.609375 -37.988281 " clip-rule="nonzero"/></clipPath><clipPath id="88f353773f"><rect x="0" width="151" y="0" height="93"/></clipPath><clipPath id="edcf9d556c"><path d="M 0 513 L 176 513 L 176 740 L 0 740 Z M 0 513 " clip-rule="nonzero"/></clipPath><clipPath id="b73524d4f8"><path d="M -75.234375 513.308594 L 175.414062 714.0625 L 154.882812 739.699219 L -95.769531 538.945312 Z M -75.234375 513.308594 " clip-rule="nonzero"/></clipPath><clipPath id="2407bb6bf1"><path d="M -75.234375 513.308594 L 175.390625 714.046875 L 154.859375 739.679688 L -95.769531 538.945312 Z M -75.234375 513.308594 " clip-rule="nonzero"/></clipPath><clipPath id="c1c0cbb9ba"><path d="M 0 475 L 231 475 L 231 709 L 0 709 Z M 0 475 " clip-rule="nonzero"/></clipPath><clipPath id="3f6c62a9b8"><path d="M -24.675781 475.308594 L 230.308594 670.761719 L 201.285156 708.625 L -53.699219 513.171875 Z M -24.675781 475.308594 " clip-rule="nonzero"/></clipPath><clipPath id="df18658bdd"><path d="M -24.675781 475.308594 L 230.175781 670.660156 L 201.152344 708.519531 L -53.699219 513.171875 Z M -24.675781 475.308594 " clip-rule="nonzero"/></clipPath><clipPath id="395019ead6"><path d="M 0 591 L 199 591 L 199 768 L 0 768 Z M 0 591 " clip-rule="nonzero"/></clipPath><clipPath id="37621bd8a1"><path d="M -51.65625 591.914062 L 198.992188 792.667969 L 178.460938 818.304688 L -72.1875 617.550781 Z M -51.65625 591.914062 " clip-rule="nonzero"/></clipPath><clipPath id="943d90427b"><path d="M -51.65625 591.914062 L 198.96875 792.652344 L 178.4375 818.285156 L -72.1875 617.550781 Z M -51.65625 591.914062 " clip-rule="nonzero"/></clipPath><clipPath id="65f22f3922"><path d="M 162 717 L 434 717 L 434 768 L 162 768 Z M 162 717 " clip-rule="nonzero"/></clipPath><clipPath id="ec3f12c508"><path d="M 183.140625 717.519531 L 433.789062 918.273438 L 413.253906 943.910156 L 162.605469 743.15625 Z M 183.140625 717.519531 " clip-rule="nonzero"/></clipPath><clipPath id="909bf75e83"><path d="M 183.140625 717.519531 L 433.765625 918.257812 L 413.234375 943.890625 L 162.605469 743.15625 Z M 183.140625 717.519531 " clip-rule="nonzero"/></clipPath><clipPath id="b50c0693bd"><path d="M 247 657 L 528 657 L 528 768 L 247 768 Z M 247 657 " clip-rule="nonzero"/></clipPath><clipPath id="8c23e6cc58"><path d="M 277.015625 657.015625 L 527.695312 857.796875 L 498.089844 894.761719 L 247.410156 693.984375 Z M 277.015625 657.015625 " clip-rule="nonzero"/></clipPath><clipPath id="bb2455bff3"><path d="M 277.015625 657.015625 L 527.644531 857.753906 L 498.035156 894.71875 L 247.410156 693.984375 Z M 277.015625 657.015625 " clip-rule="nonzero"/></clipPath><mask id="aced76dd3b"><g filter="url(#1bb3bf5339)"><rect x="-108" width="1296" fill="#000000" y="-76.799999" height="921.599993" fill-opacity="0.7"/></g></mask><clipPath id="ceae286bd4"><path d="M 0 1 L 269.761719 1 L 269.761719 120 L 0 120 Z M 0 1 " clip-rule="nonzero"/></clipPath><clipPath id="1f3ebfaef7"><path d="M 19.039062 1.148438 L 269.722656 201.929688 L 250.894531 225.4375 L 0.210938 24.65625 Z M 19.039062 1.148438 " clip-rule="nonzero"/></clipPath><clipPath id="a769323d4b"><path d="M 19.039062 1.148438 L 269.667969 201.886719 L 250.839844 225.390625 L 0.210938 24.65625 Z M 19.039062 1.148438 " clip-rule="nonzero"/></clipPath><clipPath id="e1b8cc8457"><rect x="0" width="270" y="0" height="120"/></clipPath><clipPath id="8486d515ff"><path d="M 288 619 L 339 619 L 339 668 L 288 668 Z M 288 619 " clip-rule="nonzero"/></clipPath><clipPath id="84f9cd164a"><path d="M 307.726562 619.839844 L 338.304688 644.328125 L 319.476562 667.835938 L 288.902344 643.34375 Z M 307.726562 619.839844 " clip-rule="nonzero"/></clipPath><clipPath id="1a331e67a5"><path d="M 307.726562 619.839844 L 338.253906 644.285156 L 319.425781 667.792969 L 288.902344 643.34375 Z M 307.726562 619.839844 " clip-rule="nonzero"/></clipPath><clipPath id="f78490c5a1"><path d="M 56 470 L 126 470 L 126 536 L 56 536 Z M 56 470 " clip-rule="nonzero"/></clipPath><clipPath id="668c12e5ea"><path d="M 78.789062 470.953125 L 125.269531 508.175781 L 102.949219 536.042969 L 56.472656 498.816406 Z M 78.789062 470.953125 " clip-rule="nonzero"/></clipPath><clipPath id="d0b4268c06"><path d="M 78.789062 470.953125 L 125.195312 508.121094 L 102.878906 535.984375 L 56.472656 498.816406 Z M 78.789062 470.953125 " clip-rule="nonzero"/></clipPath><clipPath id="25f7986364"><path d="M 107 513 L 170 513 L 170 573 L 107 573 Z M 107 513 " clip-rule="nonzero"/></clipPath><clipPath id="c7eb91a8af"><path d="M 129.953125 513.308594 L 169.464844 544.957031 L 147.144531 572.820312 L 107.632812 541.175781 Z M 129.953125 513.308594 " clip-rule="nonzero"/></clipPath><clipPath id="960bafc3d7"><path d="M 129.953125 513.308594 L 169.441406 544.9375 L 147.121094 572.800781 L 107.632812 541.175781 Z M 129.953125 513.308594 " clip-rule="nonzero"/></clipPath><clipPath id="f6f49f4d7c"><path d="M 910 728 L 1080 728 L 1080 768 L 910 768 Z M 910 728 " clip-rule="nonzero"/></clipPath><clipPath id="8e68f513ee"><path d="M 939.882812 728.246094 L 1190.5625 929.027344 L 1160.953125 965.992188 L 910.273438 765.210938 Z M 939.882812 728.246094 " clip-rule="nonzero"/></clipPath><clipPath id="9aa78869cf"><path d="M 939.882812 728.246094 L 1190.507812 928.984375 L 1160.902344 965.949219 L 910.273438 765.210938 Z M 939.882812 728.246094 " clip-rule="nonzero"/></clipPath><clipPath id="c0296a879f"><path d="M 868 739 L 1080 739 L 1080 768 L 868 768 Z M 868 739 " clip-rule="nonzero"/></clipPath><clipPath id="f785e7c42d"><path d="M 897.859375 739.679688 L 1148.539062 940.460938 L 1118.933594 977.425781 L 868.253906 776.648438 Z M 897.859375 739.679688 " clip-rule="nonzero"/></clipPath><clipPath id="b7cc07a6b5"><path d="M 897.859375 739.679688 L 1148.488281 940.417969 L 1118.878906 977.386719 L 868.253906 776.648438 Z M 897.859375 739.679688 " clip-rule="nonzero"/></clipPath><clipPath id="7c1bec2768"><path d="M 901 527 L 1080 527 L 1080 768 L 901 768 Z M 901 527 " clip-rule="nonzero"/></clipPath><clipPath id="9604348de3"><path d="M 1024.328125 527.78125 L 1275.015625 728.566406 L 1151.753906 882.46875 L 901.0625 681.679688 Z M 1024.328125 527.78125 " clip-rule="nonzero"/></clipPath><clipPath id="35e97120dc"><path d="M 1024.328125 527.78125 L 1274.953125 728.519531 L 1151.691406 882.417969 L 901.0625 681.679688 Z M 1024.328125 527.78125 " clip-rule="nonzero"/></clipPath><clipPath id="f868a4a101"><path d="M 799 598 L 1080 598 L 1080 768 L 799 768 Z M 799 598 " clip-rule="nonzero"/></clipPath><clipPath id="9a07d2b0fd"><path d="M 829.371094 598.667969 L 1080.050781 799.449219 L 1050.441406 836.414062 L 799.761719 635.632812 Z M 829.371094 598.667969 " clip-rule="nonzero"/></clipPath><clipPath id="89277d9aa1"><path d="M 829.371094 598.667969 L 1079.996094 799.40625 L 1050.390625 836.371094 L 799.761719 635.632812 Z M 829.371094 598.667969 " clip-rule="nonzero"/></clipPath><mask id="56177dd49b"><g filter="url(#1bb3bf5339)"><rect x="-108" width="1296" fill="#000000" y="-76.799999" height="921.599993" fill-opacity="0.85"/></g></mask><clipPath id="25415fe118"><path d="M 0.078125 0.601562 L 170 0.601562 L 170 375 L 0.078125 375 Z M 0.078125 0.601562 " clip-rule="nonzero"/></clipPath><clipPath id="409853f97f"><path d="M 175.347656 0.738281 L 434.699219 190.855469 L 259.625 429.683594 L 0.277344 239.566406 Z M 175.347656 0.738281 " clip-rule="nonzero"/></clipPath><clipPath id="33c4264f90"><path d="M 175.347656 0.738281 L 434.324219 190.582031 L 259.253906 429.410156 L 0.277344 239.566406 Z M 175.347656 0.738281 " clip-rule="nonzero"/></clipPath><clipPath id="7d1fe0eb52"><rect x="0" width="170" y="0" height="375"/></clipPath><clipPath id="316b18c122"><path d="M 810 686 L 892 686 L 892 762 L 810 762 Z M 810 686 " clip-rule="nonzero"/></clipPath><clipPath id="56feb5940a"><path d="M 833.746094 686.722656 L 891.40625 732.90625 L 868.628906 761.347656 L 810.96875 715.164062 Z M 833.746094 686.722656 " clip-rule="nonzero"/></clipPath><clipPath id="ca14523ae8"><path d="M 833.746094 686.722656 L 891.3125 732.832031 L 868.535156 761.273438 L 810.96875 715.164062 Z M 833.746094 686.722656 " clip-rule="nonzero"/></clipPath><mask id="c04b1f3747"><g filter="url(#1bb3bf5339)"><rect x="-108" width="1296" fill="#000000" y="-76.799999" height="921.599993" fill-opacity="0.78"/></g></mask><clipPath id="d98c719caa"><path d="M 0.359375 0.480469 L 121.558594 0.480469 L 121.558594 72 L 0.359375 72 Z M 0.359375 0.480469 " clip-rule="nonzero"/></clipPath><clipPath id="4b4cb3182d"><path d="M 19.101562 0.527344 L 121.484375 82.527344 L 102.96875 105.640625 L 0.589844 23.640625 Z M 19.101562 0.527344 " clip-rule="nonzero"/></clipPath><clipPath id="444f0190b1"><path d="M 19.101562 0.527344 L 121.40625 82.46875 L 102.894531 105.582031 L 0.589844 23.640625 Z M 19.101562 0.527344 " clip-rule="nonzero"/></clipPath><clipPath id="4db7be72e4"><rect x="0" width="122" y="0" height="72"/></clipPath><clipPath id="c1abc0bd71"><path d="M 931 295 L 1080 295 L 1080 550 L 931 550 Z M 931 295 " clip-rule="nonzero"/></clipPath><clipPath id="a2e39ec677"><path d="M 1106.535156 295.328125 L 1127.300781 310.550781 L 952.199219 549.414062 L 931.4375 534.191406 Z M 1106.535156 295.328125 " clip-rule="nonzero"/></clipPath><clipPath id="87c3a14246"><path d="M 1106.535156 295.328125 L 1127.300781 310.550781 L 952.226562 549.375 L 931.464844 534.15625 Z M 1106.535156 295.328125 " clip-rule="nonzero"/></clipPath><clipPath id="e7fb52d692"><path d="M 851 495 L 926 495 L 926 584 L 851 584 Z M 851 495 " clip-rule="nonzero"/></clipPath><clipPath id="495ab2141b"><path d="M 904.777344 495.242188 L 925.539062 510.460938 L 871.851562 583.703125 L 851.085938 568.480469 Z M 904.777344 495.242188 " clip-rule="nonzero"/></clipPath><clipPath id="756d5fece0"><path d="M 904.777344 495.242188 L 925.539062 510.460938 L 871.902344 583.628906 L 851.140625 568.410156 Z M 904.777344 495.242188 " clip-rule="nonzero"/></clipPath><clipPath id="3fcf00a277"><path d="M 1024 12 L 1080 12 L 1080 290 L 1024 290 Z M 1024 12 " clip-rule="nonzero"/></clipPath><clipPath id="810742cdf4"><path d="M 1199.902344 12.324219 L 1251.667969 50.273438 L 1076.460938 289.277344 L 1024.695312 251.332031 Z M 1199.902344 12.324219 " clip-rule="nonzero"/></clipPath><clipPath id="28c14022a6"><path d="M 1199.902344 12.324219 L 1251.667969 50.273438 L 1076.59375 289.097656 L 1024.828125 251.152344 Z M 1199.902344 12.324219 " clip-rule="nonzero"/></clipPath><mask id="f05b58c948"><g filter="url(#1bb3bf5339)"><rect x="-108" width="1296" fill="#000000" y="-76.799999" height="921.599993" fill-opacity="0.94"/></g></mask><clipPath id="9cee84f135"><path d="M 0.761719 0.800781 L 133 0.800781 L 133 261.441406 L 0.761719 261.441406 Z M 0.761719 0.800781 " clip-rule="nonzero"/></clipPath><clipPath id="b306dc9a7b"><path d="M 180.542969 0.800781 L 201.484375 16.152344 L 21.835938 261.222656 L 0.894531 245.871094 Z M 180.542969 0.800781 " clip-rule="nonzero"/></clipPath><clipPath id="53374e2414"><path d="M 180.542969 0.800781 L 201.484375 16.152344 L 21.847656 261.203125 L 0.910156 245.851562 Z M 180.542969 0.800781 " clip-rule="nonzero"/></clipPath><clipPath id="1997f2eb05"><rect x="0" width="133" y="0" height="262"/></clipPath><mask id="c1c55ec896"><g filter="url(#1bb3bf5339)"><rect x="-108" width="1296" fill="#000000" y="-76.799999" height="921.599993" fill-opacity="0.76"/></g></mask><clipPath id="40ae851442"><path d="M 0.558594 0.160156 L 56 0.160156 L 56 261.519531 L 0.558594 261.519531 Z M 0.558594 0.160156 " clip-rule="nonzero"/></clipPath><clipPath id="46f715de05"><path d="M 175.902344 0.171875 L 206.417969 22.539062 L 31.304688 261.417969 L 0.789062 239.050781 Z M 175.902344 0.171875 " clip-rule="nonzero"/></clipPath><clipPath id="b465c5a207"><path d="M 175.902344 0.171875 L 206.417969 22.539062 L 31.34375 261.367188 L 0.828125 238.996094 Z M 175.902344 0.171875 " clip-rule="nonzero"/></clipPath><clipPath id="e1ef981d93"><rect x="0" width="56" y="0" height="262"/></clipPath><clipPath id="f5f7fae549"><path d="M 988 317 L 1046 317 L 1046 377 L 988 377 Z M 988 317 " clip-rule="nonzero"/></clipPath><clipPath id="0b487ecb89"><path d="M 1014.933594 317.714844 L 1045.449219 340.082031 L 1018.710938 376.558594 L 988.195312 354.191406 Z M 1014.933594 317.714844 " clip-rule="nonzero"/></clipPath><clipPath id="76cd8a38ab"><path d="M 1014.933594 317.714844 L 1045.449219 340.082031 L 1018.789062 376.449219 L 988.273438 354.078125 Z M 1014.933594 317.714844 " clip-rule="nonzero"/></clipPath><clipPath id="2d67833335"><path d="M 916 328 L 963 328 L 963 377 L 916 377 Z M 916 328 " clip-rule="nonzero"/></clipPath><clipPath id="8cc4be1f13"><path d="M 939.097656 328.699219 L 962.882812 346.136719 L 940.613281 376.515625 L 916.828125 359.082031 Z M 939.097656 328.699219 " clip-rule="nonzero"/></clipPath><clipPath id="c1a4b95105"><path d="M 939.097656 328.699219 L 962.882812 346.136719 L 940.664062 376.449219 L 916.878906 359.011719 Z M 939.097656 328.699219 " clip-rule="nonzero"/></clipPath><mask id="c4f51d4c62"><g filter="url(#1bb3bf5339)"><rect x="-108" width="1296" fill="#000000" y="-76.799999" height="921.599993" fill-opacity="0.6"/></g></mask><clipPath id="87e066f161"><path d="M 0.238281 1 L 192 1 L 192 290.320312 L 0.238281 290.320312 Z M 0.238281 1 " clip-rule="nonzero"/></clipPath><clipPath id="f86ea6cfb9"><path d="M 194.777344 1.097656 L 227.222656 24.886719 L 32.757812 290.164062 L 0.3125 266.378906 Z M 194.777344 1.097656 " clip-rule="nonzero"/></clipPath><clipPath id="f98228c249"><path d="M 194.777344 1.097656 L 227.222656 24.886719 L 32.789062 290.125 L 0.339844 266.339844 Z M 194.777344 1.097656 " clip-rule="nonzero"/></clipPath><clipPath id="789208d4e8"><rect x="0" width="192" y="0" height="291"/></clipPath><clipPath id="d4f7dd69f4"><path d="M 958 0 L 1080 0 L 1080 105 L 958 105 Z M 958 0 " clip-rule="nonzero"/></clipPath><clipPath id="a58bdbb1e5"><path d="M 1158.539062 -180.867188 L 1190.507812 -156.445312 L 990.824219 104.933594 L 958.855469 80.507812 Z M 1158.539062 -180.867188 " clip-rule="nonzero"/></clipPath><clipPath id="5e195507ca"><path d="M 1158.539062 -180.867188 L 1190.507812 -156.445312 L 990.855469 104.890625 L 958.886719 80.46875 Z M 1158.539062 -180.867188 " clip-rule="nonzero"/></clipPath><clipPath id="54390ed0ea"><path d="M 925 88 L 981 88 L 981 143 L 925 143 Z M 925 88 " clip-rule="nonzero"/></clipPath><clipPath id="4ee473ad90"><path d="M 948.453125 88.464844 L 980.433594 112.898438 L 957.523438 142.886719 L 925.542969 118.457031 Z M 948.453125 88.464844 " clip-rule="nonzero"/></clipPath><clipPath id="b928475a93"><path d="M 948.453125 88.464844 L 980.421875 112.890625 L 957.511719 142.878906 L 925.542969 118.457031 Z M 948.453125 88.464844 " clip-rule="nonzero"/></clipPath><clipPath id="230f79da24"><path d="M 885 0 L 1080 0 L 1080 105 L 885 105 Z M 885 0 " clip-rule="nonzero"/></clipPath><clipPath id="3dae3546e9"><path d="M 1085.621094 -175.203125 L 1110.09375 -156.507812 L 910.433594 104.84375 L 885.960938 86.144531 Z M 1085.621094 -175.203125 " clip-rule="nonzero"/></clipPath><clipPath id="3fff695b37"><path d="M 1085.621094 -175.203125 L 1110.09375 -156.507812 L 910.441406 104.828125 L 885.96875 86.132812 Z M 1085.621094 -175.203125 " clip-rule="nonzero"/></clipPath><clipPath id="7228414457"><path d="M 807 0 L 1032 0 L 1032 141 L 807 141 Z M 807 0 " clip-rule="nonzero"/></clipPath><clipPath id="396eac1e6e"><path d="M 1006.933594 -139.269531 L 1031.40625 -120.574219 L 831.742188 140.773438 L 807.273438 122.078125 Z M 1006.933594 -139.269531 " clip-rule="nonzero"/></clipPath><clipPath id="1682741532"><path d="M 1006.933594 -139.269531 L 1031.40625 -120.574219 L 831.753906 140.761719 L 807.28125 122.0625 Z M 1006.933594 -139.269531 " clip-rule="nonzero"/></clipPath><clipPath id="80926aaa56"><path d="M 768 0 L 993 0 L 993 81 L 768 81 Z M 768 0 " clip-rule="nonzero"/></clipPath><clipPath id="e71dd3c520"><path d="M 967.996094 -199.207031 L 992.46875 -180.511719 L 792.804688 80.835938 L 768.332031 62.140625 Z M 967.996094 -199.207031 " clip-rule="nonzero"/></clipPath><clipPath id="90d1b82c33"><path d="M 967.996094 -199.207031 L 992.46875 -180.511719 L 792.816406 80.824219 L 768.34375 62.125 Z M 967.996094 -199.207031 " clip-rule="nonzero"/></clipPath><clipPath id="d8c3f8a8e0"><path d="M 732 67 L 783 67 L 783 123 L 732 123 Z M 732 67 " clip-rule="nonzero"/></clipPath><clipPath id="1efd034b6a"><path d="M 762.597656 67.050781 L 782.738281 82.4375 L 752.144531 122.488281 L 732 107.097656 Z M 762.597656 67.050781 " clip-rule="nonzero"/></clipPath><clipPath id="1be1039dd5"><path d="M 762.597656 67.050781 L 782.738281 82.4375 L 752.183594 122.4375 L 732.039062 107.046875 Z M 762.597656 67.050781 " clip-rule="nonzero"/></clipPath><clipPath id="e3f12d4ea1"><path d="M 0 275 L 108 275 L 108 536 L 0 536 Z M 0 275 " clip-rule="nonzero"/></clipPath><clipPath id="a0085f2f0d"><path d="M 86.867188 275.714844 L 107.632812 290.933594 L -72.046875 536.042969 L -92.808594 520.820312 Z M 86.867188 275.714844 " clip-rule="nonzero"/></clipPath><clipPath id="c2dd60562b"><path d="M 86.867188 275.714844 L 107.632812 290.933594 L -72.003906 535.984375 L -92.769531 520.765625 Z M 86.867188 275.714844 " clip-rule="nonzero"/></clipPath><clipPath id="e06f4332e3"><path d="M 0 331 L 36 331 L 36 592 L 0 592 Z M 0 331 " clip-rule="nonzero"/></clipPath><clipPath id="8350c69cb4"><path d="M 14.429688 331.644531 L 35.195312 346.863281 L -144.484375 591.972656 L -165.246094 576.753906 Z M 14.429688 331.644531 " clip-rule="nonzero"/></clipPath><clipPath id="2b0ba43dbc"><path d="M 14.429688 331.644531 L 35.195312 346.863281 L -144.441406 591.917969 L -165.207031 576.695312 Z M 14.429688 331.644531 " clip-rule="nonzero"/></clipPath><mask id="846b78c385"><g filter="url(#1bb3bf5339)"><rect x="-108" width="1296" fill="#000000" y="-76.799999" height="921.599993" fill-opacity="0.5"/></g></mask><clipPath id="5d50d91b7c"><path d="M 0 1 L 46.558594 1 L 46.558594 267.839844 L 0 267.839844 Z M 0 1 " clip-rule="nonzero"/></clipPath><clipPath id="ef2ba67ae6"><path d="M 17.234375 1.09375 L 46.5 22.546875 L -133.164062 267.636719 L -162.429688 246.1875 Z M 17.234375 1.09375 " clip-rule="nonzero"/></clipPath><clipPath id="d4ed9e7452"><path d="M 17.234375 1.09375 L 46.5 22.546875 L -133.136719 267.601562 L -162.402344 246.148438 Z M 17.234375 1.09375 " clip-rule="nonzero"/></clipPath><clipPath id="9acc0997ff"><rect x="0" width="47" y="0" height="268"/></clipPath><clipPath id="5f9dcc218c"><path d="M 25 250 L 77 250 L 77 303 L 25 303 Z M 25 250 " clip-rule="nonzero"/></clipPath><clipPath id="cc8f9a4517"><path d="M 47.535156 250.75 L 76.796875 272.199219 L 54.425781 302.722656 L 25.160156 281.269531 Z M 47.535156 250.75 " clip-rule="nonzero"/></clipPath><clipPath id="5db1ff77d5"><path d="M 47.535156 250.75 L 76.796875 272.199219 L 54.480469 302.648438 L 25.214844 281.195312 Z M 47.535156 250.75 " clip-rule="nonzero"/></clipPath><mask id="81d317d9bf"><g filter="url(#1bb3bf5339)"><rect x="-108" width="1296" fill="#000000" y="-76.799999" height="921.599993" fill-opacity="0.5"/></g></mask><clipPath id="0e966d89d9"><path d="M 0 0.839844 L 188.878906 0.839844 L 188.878906 165 L 0 165 Z M 0 0.839844 " clip-rule="nonzero"/></clipPath><clipPath id="bfb5384240"><path d="M -62.15625 0.914062 L 188.703125 201.835938 L 116.5625 291.90625 L -134.292969 90.984375 Z M -62.15625 0.914062 " clip-rule="nonzero"/></clipPath><clipPath id="1dc141beec"><path d="M -62.15625 0.914062 L 188.472656 201.652344 L 116.332031 291.71875 L -134.292969 90.984375 Z M -62.15625 0.914062 " clip-rule="nonzero"/></clipPath><clipPath id="17eb02a502"><rect x="0" width="189" y="0" height="165"/></clipPath><clipPath id="5b1b8cfdb4"><path d="M 38.550781 45.59375 L 1041.300781 45.59375 L 1041.300781 722.089844 L 38.550781 722.089844 Z M 38.550781 45.59375 " clip-rule="nonzero"/></clipPath><clipPath id="cc87518c31"><path d="M 230 713 L 280 713 L 280 762 L 230 762 Z M 230 713 " clip-rule="nonzero"/></clipPath><clipPath id="133cf66a49"><path d="M 249 713.316406 L 279.578125 737.804688 L 260.75 761.3125 L 230.171875 736.824219 Z M 249 713.316406 " clip-rule="nonzero"/></clipPath><clipPath id="43378d0d01"><path d="M 249 713.316406 L 279.527344 737.765625 L 260.699219 761.269531 L 230.171875 736.824219 Z M 249 713.316406 " clip-rule="nonzero"/></clipPath><clipPath id="e1632fbbd6"><path d="M 338 49 L 434 49 L 434 133 L 338 133 Z M 338 49 " clip-rule="nonzero"/></clipPath><clipPath id="5852f26543"><path d="M 355.789062 49.800781 L 433.820312 109.613281 L 416.28125 132.492188 L 338.25 72.679688 Z M 355.789062 49.800781 " clip-rule="nonzero"/></clipPath><clipPath id="5e26090050"><path d="M 355.789062 49.800781 L 433.765625 109.570312 L 416.226562 132.453125 L 338.25 72.679688 Z M 355.789062 49.800781 " clip-rule="nonzero"/></clipPath><mask id="1e099ec0dd"><g filter="url(#1bb3bf5339)"><rect x="-108" width="1296" fill="#000000" y="-76.799999" height="921.599993" fill-opacity="0.8"/></g></mask><clipPath id="b49f0fb491"><path d="M 0.199219 0 L 156.921875 0 L 156.921875 92.398438 L 0.199219 92.398438 Z M 0.199219 0 " clip-rule="nonzero"/></clipPath><clipPath id="10b886bf57"><path d="M 36.152344 -47.019531 L 156.683594 45.371094 L 120.738281 92.265625 L 0.207031 -0.125 Z M 36.152344 -47.019531 " clip-rule="nonzero"/></clipPath><clipPath id="7b03a5ca96"><path d="M 36.152344 -47.019531 L 156.582031 45.292969 L 120.636719 92.1875 L 0.207031 -0.125 Z M 36.152344 -47.019531 " clip-rule="nonzero"/></clipPath><clipPath id="aef01a24b5"><rect x="0" width="157" y="0" height="93"/></clipPath><mask id="25851efb07"><g filter="url(#1bb3bf5339)"><rect x="-108" width="1296" fill="#000000" y="-76.799999" height="921.599993" fill-opacity="0.6"/></g></mask><clipPath id="fc6eb8d49e"><path d="M 0.640625 0 L 245.679688 0 L 245.679688 97.679688 L 0.640625 97.679688 Z M 0.640625 0 " clip-rule="nonzero"/></clipPath><clipPath id="3e0b5be88c"><path d="M 195.171875 -204.722656 L 245.617188 -167.742188 L 51.183594 97.5 L 0.734375 60.519531 Z M 195.171875 -204.722656 " clip-rule="nonzero"/></clipPath><clipPath id="a975b868fa"><path d="M 195.171875 -204.722656 L 245.617188 -167.742188 L 51.183594 97.496094 L 0.738281 60.515625 Z M 195.171875 -204.722656 " clip-rule="nonzero"/></clipPath><clipPath id="9fa65d626a"><rect x="0" width="246" y="0" height="98"/></clipPath><clipPath id="64d36ce7b5"><path d="M 659 0 L 892 0 L 892 126 L 659 126 Z M 659 0 " clip-rule="nonzero"/></clipPath><clipPath id="5110a46296"><path d="M 859.34375 -159.914062 L 891.3125 -135.492188 L 691.628906 125.886719 L 659.660156 101.460938 Z M 859.34375 -159.914062 " clip-rule="nonzero"/></clipPath><clipPath id="7a80d529b1"><path d="M 859.34375 -159.914062 L 891.3125 -135.492188 L 691.660156 125.84375 L 659.691406 101.421875 Z M 859.34375 -159.914062 " clip-rule="nonzero"/></clipPath><clipPath id="a8b4feb4a7"><path d="M 588 0 L 820 0 L 820 126 L 588 126 Z M 588 0 " clip-rule="nonzero"/></clipPath><clipPath id="b4473aa967"><path d="M 788.027344 -159.914062 L 819.996094 -135.492188 L 620.316406 125.886719 L 588.34375 101.460938 Z M 788.027344 -159.914062 " clip-rule="nonzero"/></clipPath><clipPath id="d0e08f7d5a"><path d="M 788.027344 -159.914062 L 819.996094 -135.492188 L 620.347656 125.84375 L 588.375 101.421875 Z M 788.027344 -159.914062 " clip-rule="nonzero"/></clipPath></defs><g mask="url(#dc22caf52b)"><g transform="matrix(1, 0, 0, 1, 0, 163)"><g clip-path="url(#0e19cf447e)"><g clip-path="url(#07613dba00)"><g clip-path="url(#48db1452cf)"><g clip-path="url(#4862fb1ab9)"><path fill="#0a7ea4" d="M 24.53125 0.335938 L 45.296875 15.558594 L -134.320312 260.585938 L -155.085938 245.363281 Z M 24.53125 0.335938 " fill-opacity="1" fill-rule="nonzero"/></g></g></g></g></g></g><g mask="url(#e691302208)"><g transform="matrix(1, 0, 0, 1, 0, 47)"><g clip-path="url(#23c72d759f)"><g clip-path="url(#9fa045d0d2)"><g clip-path="url(#8b02e2eeef)"><g clip-path="url(#4f3ae8535d)"><path fill="#763ebd" d="M -57.679688 0.179688 L 161.503906 168.1875 L 119.746094 222.664062 L -99.4375 54.652344 Z M -57.679688 0.179688 " fill-opacity="1" fill-rule="nonzero"/></g></g></g></g></g></g><g clip-path="url(#91cd356291)"><g clip-path="url(#939395ced5)"><g clip-path="url(#cb5f1d09c0)"><path fill="#fa896b" d="M 3.445312 88.464844 L 222.65625 256.5 L 208.183594 275.382812 L -11.03125 107.347656 Z M 3.445312 88.464844 " fill-opacity="1" fill-rule="nonzero"/></g></g></g><g clip-path="url(#36960184e2)"><g clip-path="url(#b94b0938f2)"><g clip-path="url(#47a86ef738)"><path fill="#763ebd" d="M -88.742188 -59.195312 L 130.441406 108.816406 L 88.683594 163.292969 L -130.5 -4.71875 Z M -88.742188 -59.195312 " fill-opacity="1" fill-rule="nonzero"/></g></g></g><g clip-path="url(#12e53c1fad)"><g clip-path="url(#352ac0e13c)"><g clip-path="url(#7e792d6fc1)"><path fill="#0a7ea4" d="M -32.539062 -32.324219 L 186.6875 135.722656 L 165.527344 163.328125 L -53.699219 -4.71875 Z M -32.539062 -32.324219 " fill-opacity="1" fill-rule="nonzero"/></g></g></g><g clip-path="url(#1a156ba304)"><g clip-path="url(#590b472fec)"><g clip-path="url(#9f62a04d55)"><path fill="#763ebd" d="M -142.4375 -157.023438 L 76.789062 11.019531 L 55.628906 38.628906 L -163.597656 -129.417969 Z M -142.4375 -157.023438 " fill-opacity="1" fill-rule="nonzero"/></g></g></g><g mask="url(#eefb8d29b9)"><g transform="matrix(1, 0, 0, 1, 0, -0.000000000000057351)"><g clip-path="url(#34e56e959d)"><g clip-path="url(#48c8ce9b65)"><g clip-path="url(#b30ca90f7a)"><g clip-path="url(#c65d4f74d5)"><path fill="#fa896b" d="M -43.84375 -107.191406 L 175.382812 60.851562 L 154.222656 88.457031 L -65.003906 -79.585938 Z M -43.84375 -107.191406 " fill-opacity="1" fill-rule="nonzero"/></g></g></g></g></g></g><g clip-path="url(#a34414d9d4)"><g clip-path="url(#667aa24eed)"><g clip-path="url(#52dd3188d2)"><path fill="#01c0c8" d="M 196.554688 76.804688 L 305.789062 160.535156 L 284.628906 188.140625 L 175.394531 104.410156 Z M 196.554688 76.804688 " fill-opacity="1" fill-rule="nonzero"/></g></g></g><g clip-path="url(#f3fffefc7d)"><g clip-path="url(#5df77eb360)"><g clip-path="url(#6aeea15367)"><path fill="#50bcbd" d="M 97.960938 -72.699219 L 207.195312 11.03125 L 186.035156 38.636719 L 76.796875 -45.09375 Z M 97.960938 -72.699219 " fill-opacity="1" fill-rule="nonzero"/></g></g></g><g clip-path="url(#2a56c6914f)"><g clip-path="url(#ff84718ea7)"><g clip-path="url(#8b77e058c1)"><path fill="#763ebd" d="M 252.5 48.800781 L 361.730469 132.53125 L 343.867188 155.832031 L 234.636719 72.105469 Z M 252.5 48.800781 " fill-opacity="1" fill-rule="nonzero"/></g></g></g><g clip-path="url(#a9bdf29032)"><g clip-path="url(#d9699c8601)"><g clip-path="url(#72b982eb53)"><path fill="#fa896b" d="M 216.832031 23.285156 L 247.417969 46.726562 L 229.554688 70.03125 L 198.972656 46.585938 Z M 216.832031 23.285156 " fill-opacity="1" fill-rule="nonzero"/></g></g></g><g clip-path="url(#96500d5cd7)"><g clip-path="url(#3e2e2dc505)"><g clip-path="url(#266251458f)"><path fill="#0a7ea4" d="M 348.945312 -35.1875 L 524.167969 99.128906 L 506.304688 122.429688 L 331.082031 -11.882812 Z M 348.945312 -35.1875 " fill-opacity="1" fill-rule="nonzero"/></g></g></g><g clip-path="url(#a070b3eb75)"><g clip-path="url(#edc6ee58e8)"><g clip-path="url(#e9538d10d0)"><path fill="#fa896b" d="M 240.542969 -39.605469 L 348.496094 43.144531 L 330.636719 66.449219 L 222.679688 -16.304688 Z M 240.542969 -39.605469 " fill-opacity="1" fill-rule="nonzero"/></g></g></g><g mask="url(#03a6063c70)"><g transform="matrix(1, 0, 0, 1, 433, -0.000000000000057351)"><g clip-path="url(#88f353773f)"><g clip-path="url(#bbf5e0a692)"><g clip-path="url(#d3b34289ec)"><g clip-path="url(#91018cf960)"><path fill="#763ebd" d="M 29.609375 -37.988281 L 150 54.296875 L 120.976562 92.160156 L 0.585938 -0.125 Z M 29.609375 -37.988281 " fill-opacity="1" fill-rule="nonzero"/></g></g></g></g></g></g><g clip-path="url(#edcf9d556c)"><g clip-path="url(#b73524d4f8)"><g clip-path="url(#2407bb6bf1)"><path fill="#0a7ea4" d="M -75.234375 513.308594 L 175.414062 714.0625 L 154.882812 739.699219 L -95.769531 538.945312 Z M -75.234375 513.308594 " fill-opacity="1" fill-rule="nonzero"/></g></g></g><g clip-path="url(#c1c0cbb9ba)"><g clip-path="url(#3f6c62a9b8)"><g clip-path="url(#df18658bdd)"><path fill="#763ebd" d="M -24.675781 475.308594 L 230.160156 670.648438 L 201.136719 708.511719 L -53.699219 513.171875 Z M -24.675781 475.308594 " fill-opacity="1" fill-rule="nonzero"/></g></g></g><g clip-path="url(#395019ead6)"><g clip-path="url(#37621bd8a1)"><g clip-path="url(#943d90427b)"><path fill="#fa896b" d="M -51.65625 591.914062 L 198.992188 792.667969 L 178.460938 818.304688 L -72.1875 617.550781 Z M -51.65625 591.914062 " fill-opacity="1" fill-rule="nonzero"/></g></g></g><g clip-path="url(#65f22f3922)"><g clip-path="url(#ec3f12c508)"><g clip-path="url(#909bf75e83)"><path fill="#01c0c8" d="M 183.140625 717.519531 L 433.789062 918.273438 L 413.253906 943.910156 L 162.605469 743.15625 Z M 183.140625 717.519531 " fill-opacity="1" fill-rule="nonzero"/></g></g></g><g clip-path="url(#b50c0693bd)"><g clip-path="url(#8c23e6cc58)"><g clip-path="url(#bb2455bff3)"><path fill="#fa896b" d="M 277.015625 657.015625 L 527.695312 857.796875 L 498.089844 894.761719 L 247.410156 693.984375 Z M 277.015625 657.015625 " fill-opacity="1" fill-rule="nonzero"/></g></g></g><g mask="url(#aced76dd3b)"><g transform="matrix(1, 0, 0, 1, 324, 648)"><g clip-path="url(#e1b8cc8457)"><g clip-path="url(#ceae286bd4)"><g clip-path="url(#1f3ebfaef7)"><g clip-path="url(#a769323d4b)"><path fill="#763ebd" d="M 19.039062 1.148438 L 269.628906 201.855469 L 250.800781 225.363281 L 0.210938 24.65625 Z M 19.039062 1.148438 " fill-opacity="1" fill-rule="nonzero"/></g></g></g></g></g></g><g clip-path="url(#8486d515ff)"><g clip-path="url(#84f9cd164a)"><g clip-path="url(#1a331e67a5)"><path fill="#0a7ea4" d="M 307.726562 619.839844 L 338.214844 644.253906 L 319.386719 667.761719 L 288.902344 643.34375 Z M 307.726562 619.839844 " fill-opacity="1" fill-rule="nonzero"/></g></g></g><g clip-path="url(#f78490c5a1)"><g clip-path="url(#668c12e5ea)"><g clip-path="url(#d0b4268c06)"><path fill="#0a7ea4" d="M 78.789062 470.953125 L 125.160156 508.089844 L 102.839844 535.957031 L 56.472656 498.816406 Z M 78.789062 470.953125 " fill-opacity="1" fill-rule="nonzero"/></g></g></g><g clip-path="url(#25f7986364)"><g clip-path="url(#c7eb91a8af)"><g clip-path="url(#960bafc3d7)"><path fill="#0a7ea4" d="M 129.953125 513.308594 L 169.464844 544.957031 L 147.144531 572.820312 L 107.632812 541.175781 Z M 129.953125 513.308594 " fill-opacity="1" fill-rule="nonzero"/></g></g></g><g clip-path="url(#f6f49f4d7c)"><g clip-path="url(#8e68f513ee)"><g clip-path="url(#9aa78869cf)"><path fill="#763ebd" d="M 939.882812 728.246094 L 1190.5625 929.027344 L 1160.953125 965.992188 L 910.273438 765.210938 Z M 939.882812 728.246094 " fill-opacity="1" fill-rule="nonzero"/></g></g></g><g clip-path="url(#c0296a879f)"><g clip-path="url(#f785e7c42d)"><g clip-path="url(#b7cc07a6b5)"><path fill="#0a7ea4" d="M 897.859375 739.679688 L 1148.539062 940.460938 L 1118.933594 977.425781 L 868.253906 776.648438 Z M 897.859375 739.679688 " fill-opacity="1" fill-rule="nonzero"/></g></g></g><g clip-path="url(#7c1bec2768)"><g clip-path="url(#9604348de3)"><g clip-path="url(#35e97120dc)"><path fill="#0a7ea4" d="M 1024.328125 527.78125 L 1275.015625 728.566406 L 1151.753906 882.46875 L 901.0625 681.679688 Z M 1024.328125 527.78125 " fill-opacity="1" fill-rule="nonzero"/></g></g></g><g clip-path="url(#f868a4a101)"><g clip-path="url(#9a07d2b0fd)"><g clip-path="url(#89277d9aa1)"><path fill="#763ebd" d="M 829.371094 598.667969 L 1080.050781 799.449219 L 1050.441406 836.414062 L 799.761719 635.632812 Z M 829.371094 598.667969 " fill-opacity="1" fill-rule="nonzero"/></g></g></g><g mask="url(#56177dd49b)"><g transform="matrix(1, 0, 0, 1, 910, 393)"><g clip-path="url(#7d1fe0eb52)"><g clip-path="url(#25415fe118)"><g clip-path="url(#409853f97f)"><g clip-path="url(#33c4264f90)"><path fill="#763ebd" d="M 175.347656 0.738281 L 434.699219 190.855469 L 259.625 429.683594 L 0.277344 239.566406 Z M 175.347656 0.738281 " fill-opacity="1" fill-rule="nonzero"/></g></g></g></g></g></g><g clip-path="url(#316b18c122)"><g clip-path="url(#56feb5940a)"><g clip-path="url(#ca14523ae8)"><path fill="#fa896b" d="M 833.746094 686.722656 L 891.296875 732.816406 L 868.515625 761.257812 L 810.96875 715.164062 Z M 833.746094 686.722656 " fill-opacity="1" fill-rule="nonzero"/></g></g></g><g mask="url(#c04b1f3747)"><g transform="matrix(1, 0, 0, 1, 759, 696)"><g clip-path="url(#4db7be72e4)"><g clip-path="url(#d98c719caa)"><g clip-path="url(#4b4cb3182d)"><g clip-path="url(#444f0190b1)"><path fill="#763ebd" d="M 19.101562 0.527344 L 121.390625 82.457031 L 102.878906 105.570312 L 0.589844 23.640625 Z M 19.101562 0.527344 " fill-opacity="1" fill-rule="nonzero"/></g></g></g></g></g></g><g clip-path="url(#c1abc0bd71)"><g clip-path="url(#a2e39ec677)"><g clip-path="url(#87c3a14246)"><path fill="#fa896b" d="M 1106.535156 295.328125 L 1127.300781 310.550781 L 952.199219 549.414062 L 931.4375 534.191406 Z M 1106.535156 295.328125 " fill-opacity="1" fill-rule="nonzero"/></g></g></g><g clip-path="url(#e7fb52d692)"><g clip-path="url(#495ab2141b)"><g clip-path="url(#756d5fece0)"><path fill="#0a7ea4" d="M 904.777344 495.242188 L 925.539062 510.460938 L 871.910156 583.621094 L 851.148438 568.398438 Z M 904.777344 495.242188 " fill-opacity="1" fill-rule="nonzero"/></g></g></g><g clip-path="url(#3fcf00a277)"><g clip-path="url(#810742cdf4)"><g clip-path="url(#28c14022a6)"><path fill="#763ebd" d="M 1199.902344 12.324219 L 1251.667969 50.273438 L 1076.609375 289.078125 L 1024.84375 251.128906 Z M 1199.902344 12.324219 " fill-opacity="1" fill-rule="nonzero"/></g></g></g><g mask="url(#f05b58c948)"><g transform="matrix(1, 0, 0, 1, 947, 76)"><g clip-path="url(#1997f2eb05)"><g clip-path="url(#9cee84f135)"><g clip-path="url(#b306dc9a7b)"><g clip-path="url(#53374e2414)"><path fill="#0a7ea4" d="M 180.542969 0.800781 L 201.484375 16.152344 L 21.835938 261.222656 L 0.894531 245.871094 Z M 180.542969 0.800781 " fill-opacity="1" fill-rule="nonzero"/></g></g></g></g></g></g><g mask="url(#c1c55ec896)"><g transform="matrix(1, 0, 0, 1, 1024, 62)"><g clip-path="url(#e1ef981d93)"><g clip-path="url(#40ae851442)"><g clip-path="url(#46f715de05)"><g clip-path="url(#b465c5a207)"><path fill="#fa896b" d="M 175.902344 0.171875 L 206.417969 22.539062 L 31.304688 261.417969 L 0.789062 239.050781 Z M 175.902344 0.171875 " fill-opacity="1" fill-rule="nonzero"/></g></g></g></g></g></g><g clip-path="url(#f5f7fae549)"><g clip-path="url(#0b487ecb89)"><g clip-path="url(#76cd8a38ab)"><path fill="#0a7ea4" d="M 1014.933594 317.714844 L 1045.449219 340.082031 L 1018.796875 376.441406 L 988.28125 354.070312 Z M 1014.933594 317.714844 " fill-opacity="1" fill-rule="nonzero"/></g></g></g><g clip-path="url(#2d67833335)"><g clip-path="url(#8cc4be1f13)"><g clip-path="url(#c1a4b95105)"><path fill="#01c0c8" d="M 939.097656 328.699219 L 962.882812 346.136719 L 940.679688 376.425781 L 916.898438 358.988281 Z M 939.097656 328.699219 " fill-opacity="1" fill-rule="nonzero"/></g></g></g><g mask="url(#c4f51d4c62)"><g transform="matrix(1, 0, 0, 1, 888, 26)"><g clip-path="url(#789208d4e8)"><g clip-path="url(#87e066f161)"><g clip-path="url(#f86ea6cfb9)"><g clip-path="url(#f98228c249)"><path fill="#50bcbd" d="M 194.777344 1.097656 L 227.222656 24.886719 L 32.757812 290.167969 L 0.3125 266.378906 Z M 194.777344 1.097656 " fill-opacity="1" fill-rule="nonzero"/></g></g></g></g></g></g><g clip-path="url(#d4f7dd69f4)"><g clip-path="url(#a58bdbb1e5)"><g clip-path="url(#5e195507ca)"><path fill="#763ebd" d="M 1158.539062 -180.867188 L 1190.507812 -156.445312 L 990.824219 104.933594 L 958.855469 80.507812 Z M 1158.539062 -180.867188 " fill-opacity="1" fill-rule="nonzero"/></g></g></g><g clip-path="url(#54390ed0ea)"><g clip-path="url(#4ee473ad90)"><g clip-path="url(#b928475a93)"><path fill="#fa896b" d="M 948.453125 88.464844 L 980.433594 112.898438 L 957.523438 142.886719 L 925.542969 118.457031 Z M 948.453125 88.464844 " fill-opacity="1" fill-rule="nonzero"/></g></g></g><g clip-path="url(#230f79da24)"><g clip-path="url(#3dae3546e9)"><g clip-path="url(#3fff695b37)"><path fill="#0a7ea4" d="M 1085.621094 -175.203125 L 1110.09375 -156.507812 L 910.433594 104.84375 L 885.960938 86.148438 Z M 1085.621094 -175.203125 " fill-opacity="1" fill-rule="nonzero"/></g></g></g><g clip-path="url(#7228414457)"><g clip-path="url(#396eac1e6e)"><g clip-path="url(#1682741532)"><path fill="#763ebd" d="M 1006.933594 -139.269531 L 1031.40625 -120.574219 L 831.742188 140.773438 L 807.273438 122.078125 Z M 1006.933594 -139.269531 " fill-opacity="1" fill-rule="nonzero"/></g></g></g><g clip-path="url(#80926aaa56)"><g clip-path="url(#e71dd3c520)"><g clip-path="url(#90d1b82c33)"><path fill="#fa896b" d="M 967.996094 -199.207031 L 992.46875 -180.511719 L 792.804688 80.835938 L 768.332031 62.140625 Z M 967.996094 -199.207031 " fill-opacity="1" fill-rule="nonzero"/></g></g></g><g clip-path="url(#d8c3f8a8e0)"><g clip-path="url(#1efd034b6a)"><g clip-path="url(#1be1039dd5)"><path fill="#50bcbd" d="M 762.597656 67.050781 L 782.738281 82.4375 L 752.203125 122.410156 L 732.058594 107.019531 Z M 762.597656 67.050781 " fill-opacity="1" fill-rule="nonzero"/></g></g></g><g clip-path="url(#e3f12d4ea1)"><g clip-path="url(#a0085f2f0d)"><g clip-path="url(#c2dd60562b)"><path fill="#fa896b" d="M 86.867188 275.714844 L 107.632812 290.933594 L -71.988281 535.960938 L -92.75 520.742188 Z M 86.867188 275.714844 " fill-opacity="1" fill-rule="nonzero"/></g></g></g><g clip-path="url(#e06f4332e3)"><g clip-path="url(#8350c69cb4)"><g clip-path="url(#2b0ba43dbc)"><path fill="#0a7ea4" d="M 14.429688 331.644531 L 35.195312 346.863281 L -144.425781 591.890625 L -165.1875 576.671875 Z M 14.429688 331.644531 " fill-opacity="1" fill-rule="nonzero"/></g></g></g><g mask="url(#846b78c385)"><g transform="matrix(1, 0, 0, 1, 0, 288)"><g clip-path="url(#9acc0997ff)"><g clip-path="url(#5d50d91b7c)"><g clip-path="url(#ef2ba67ae6)"><g clip-path="url(#d4ed9e7452)"><path fill="#763ebd" d="M 17.234375 1.09375 L 46.5 22.546875 L -133.164062 267.636719 L -162.429688 246.1875 Z M 17.234375 1.09375 " fill-opacity="1" fill-rule="nonzero"/></g></g></g></g></g></g><g clip-path="url(#5f9dcc218c)"><g clip-path="url(#cc8f9a4517)"><g clip-path="url(#5db1ff77d5)"><path fill="#763ebd" d="M 47.535156 250.75 L 76.796875 272.199219 L 54.507812 302.609375 L 25.242188 281.15625 Z M 47.535156 250.75 " fill-opacity="1" fill-rule="nonzero"/></g></g></g><g mask="url(#81d317d9bf)"><g transform="matrix(1, 0, 0, 1, 0, 603)"><g clip-path="url(#17eb02a502)"><g clip-path="url(#0e966d89d9)"><g clip-path="url(#bfb5384240)"><g clip-path="url(#1dc141beec)"><path fill="#763ebd" d="M -62.15625 0.914062 L 188.351562 201.554688 L 116.210938 291.621094 L -134.292969 90.984375 Z M -62.15625 0.914062 " fill-opacity="1" fill-rule="nonzero"/></g></g></g></g></g></g><g clip-path="url(#5b1b8cfdb4)"><path stroke-linecap="butt" transform="matrix(0.75, 0, 0, 0.75, 38.549695, 45.592899)" fill="none" stroke-linejoin="miter" d="M 0.00144882 0.00113421 L 1337.189015 0.00113421 L 1337.189015 902.417846 L 0.00144882 902.417846 Z M 0.00144882 0.00113421 " stroke="#ffffff" stroke-width="20" stroke-opacity="1" stroke-miterlimit="4"/></g><g fill="#02263b" fill-opacity="1"><g transform="translate(326.391287, 227.184062)"><g><path d="M 29.375 -11.875 C 31.320312 -11.875 33.160156 -12.171875 34.890625 -12.765625 C 36.617188 -13.359375 37.9375 -13.953125 38.84375 -14.546875 L 44.328125 -3.625 C 43.171875 -2.632812 41.175781 -1.632812 38.34375 -0.625 C 35.519531 0.382812 32.1875 0.890625 28.34375 0.890625 C 24.738281 0.890625 21.34375 0.257812 18.15625 -1 C 14.976562 -2.257812 12.160156 -4.019531 9.703125 -6.28125 C 7.253906 -8.550781 5.335938 -11.222656 3.953125 -14.296875 C 2.578125 -17.367188 1.890625 -20.71875 1.890625 -24.34375 C 1.890625 -27.96875 2.578125 -31.328125 3.953125 -34.421875 C 5.335938 -37.523438 7.25 -40.21875 9.6875 -42.5 C 12.132812 -44.78125 14.953125 -46.554688 18.140625 -47.828125 C 21.335938 -49.097656 24.738281 -49.734375 28.34375 -49.734375 C 32.1875 -49.734375 35.519531 -49.222656 38.34375 -48.203125 C 41.175781 -47.191406 43.171875 -46.195312 44.328125 -45.21875 L 38.84375 -34.296875 C 37.9375 -34.890625 36.617188 -35.484375 34.890625 -36.078125 C 33.160156 -36.671875 31.320312 -36.96875 29.375 -36.96875 C 26.957031 -36.96875 24.890625 -36.609375 23.171875 -35.890625 C 21.460938 -35.171875 20.066406 -34.207031 18.984375 -33 C 17.898438 -31.789062 17.101562 -30.445312 16.59375 -28.96875 C 16.09375 -27.488281 15.84375 -25.984375 15.84375 -24.453125 C 15.84375 -22.898438 16.09375 -21.378906 16.59375 -19.890625 C 17.101562 -18.398438 17.898438 -17.046875 18.984375 -15.828125 C 20.066406 -14.617188 21.460938 -13.65625 23.171875 -12.9375 C 24.890625 -12.226562 26.957031 -11.875 29.375 -11.875 Z M 29.375 -11.875 "/></g></g></g><g fill="#02263b" fill-opacity="1"><g transform="translate(374.412182, 227.184062)"><g><path d="M 2.65625 -48.84375 L 34.75 -48.84375 L 34.75 -37.625 L 15.546875 -37.625 L 15.546875 -29.890625 L 34.671875 -29.890625 L 34.671875 -19.0625 L 15.546875 -19.0625 L 15.546875 -11.21875 L 34.75 -11.21875 L 34.75 0 L 2.65625 0 Z M 2.65625 -48.84375 "/></g></g></g><g fill="#02263b" fill-opacity="1"><g transform="translate(414.219949, 227.184062)"><g><path d="M 2.375 -48.84375 L 23.390625 -48.84375 C 26.296875 -48.84375 28.867188 -48.226562 31.109375 -47 C 33.359375 -45.78125 35.128906 -44.035156 36.421875 -41.765625 C 37.722656 -39.503906 38.375 -36.804688 38.375 -33.671875 C 38.375 -30.566406 37.84375 -28.035156 36.78125 -26.078125 C 35.71875 -24.128906 34.445312 -22.675781 32.96875 -21.71875 C 31.488281 -20.757812 30.128906 -20.15625 28.890625 -19.90625 L 40.65625 0 L 26.203125 0 L 15.90625 -18.90625 L 15.28125 -18.90625 L 15.28125 0 L 2.375 0 Z M 15.28125 -27.71875 L 18.765625 -27.71875 C 20.359375 -27.71875 21.816406 -28.097656 23.140625 -28.859375 C 24.460938 -29.617188 25.125 -31.085938 25.125 -33.265625 C 25.125 -35.410156 24.472656 -36.863281 23.171875 -37.625 C 21.878906 -38.394531 20.445312 -38.78125 18.875 -38.78125 L 15.28125 -38.78125 Z M 15.28125 -27.71875 "/></g></g></g><g fill="#02263b" fill-opacity="1"><g transform="translate(459.022182, 227.184062)"><g><path d="M 11.390625 -37.625 L 0.375 -37.625 L 0.375 -48.84375 L 35.296875 -48.84375 L 35.296875 -37.625 L 24.265625 -37.625 L 24.265625 0 L 11.390625 0 Z M 11.390625 -37.625 "/></g></g></g><g fill="#02263b" fill-opacity="1"><g transform="translate(497.20212, 227.184062)"><g><path d="M 3.03125 -48.84375 L 15.90625 -48.84375 L 15.90625 0 L 3.03125 0 Z M 3.03125 -48.84375 "/></g></g></g><g fill="#02263b" fill-opacity="1"><g transform="translate(518.252885, 227.184062)"><g><path d="M 3.109375 -48.84375 L 32.40625 -48.84375 L 32.40625 -37.625 L 15.984375 -37.625 L 15.984375 -30.078125 L 31.109375 -30.078125 L 31.109375 -18.875 L 15.984375 -18.875 L 15.984375 0 L 3.109375 0 Z M 3.109375 -48.84375 "/></g></g></g><g fill="#02263b" fill-opacity="1"><g transform="translate(554.472026, 227.184062)"><g><path d="M 3.03125 -48.84375 L 15.90625 -48.84375 L 15.90625 0 L 3.03125 0 Z M 3.03125 -48.84375 "/></g></g></g><g fill="#02263b" fill-opacity="1"><g transform="translate(575.522791, 227.184062)"><g><path d="M 29.375 -11.875 C 31.320312 -11.875 33.160156 -12.171875 34.890625 -12.765625 C 36.617188 -13.359375 37.9375 -13.953125 38.84375 -14.546875 L 44.328125 -3.625 C 43.171875 -2.632812 41.175781 -1.632812 38.34375 -0.625 C 35.519531 0.382812 32.1875 0.890625 28.34375 0.890625 C 24.738281 0.890625 21.34375 0.257812 18.15625 -1 C 14.976562 -2.257812 12.160156 -4.019531 9.703125 -6.28125 C 7.253906 -8.550781 5.335938 -11.222656 3.953125 -14.296875 C 2.578125 -17.367188 1.890625 -20.71875 1.890625 -24.34375 C 1.890625 -27.96875 2.578125 -31.328125 3.953125 -34.421875 C 5.335938 -37.523438 7.25 -40.21875 9.6875 -42.5 C 12.132812 -44.78125 14.953125 -46.554688 18.140625 -47.828125 C 21.335938 -49.097656 24.738281 -49.734375 28.34375 -49.734375 C 32.1875 -49.734375 35.519531 -49.222656 38.34375 -48.203125 C 41.175781 -47.191406 43.171875 -46.195312 44.328125 -45.21875 L 38.84375 -34.296875 C 37.9375 -34.890625 36.617188 -35.484375 34.890625 -36.078125 C 33.160156 -36.671875 31.320312 -36.96875 29.375 -36.96875 C 26.957031 -36.96875 24.890625 -36.609375 23.171875 -35.890625 C 21.460938 -35.171875 20.066406 -34.207031 18.984375 -33 C 17.898438 -31.789062 17.101562 -30.445312 16.59375 -28.96875 C 16.09375 -27.488281 15.84375 -25.984375 15.84375 -24.453125 C 15.84375 -22.898438 16.09375 -21.378906 16.59375 -19.890625 C 17.101562 -18.398438 17.898438 -17.046875 18.984375 -15.828125 C 20.066406 -14.617188 21.460938 -13.65625 23.171875 -12.9375 C 24.890625 -12.226562 26.957031 -11.875 29.375 -11.875 Z M 29.375 -11.875 "/></g></g></g><g fill="#02263b" fill-opacity="1"><g transform="translate(623.543686, 227.184062)"><g><path d="M 18.9375 -48.84375 L 31.59375 -48.84375 L 51.359375 0 L 37.625 0 L 34.296875 -9.0625 L 16.28125 -9.0625 L 12.953125 0 L -0.84375 0 Z M 20.578125 -20.28125 L 30 -20.28125 L 25.34375 -33.375 L 25.234375 -33.375 Z M 20.578125 -20.28125 "/></g></g></g><g fill="#02263b" fill-opacity="1"><g transform="translate(675.597158, 227.184062)"><g><path d="M 11.390625 -37.625 L 0.375 -37.625 L 0.375 -48.84375 L 35.296875 -48.84375 L 35.296875 -37.625 L 24.265625 -37.625 L 24.265625 0 L 11.390625 0 Z M 11.390625 -37.625 "/></g></g></g><g fill="#02263b" fill-opacity="1"><g transform="translate(713.777072, 227.184062)"><g><path d="M 2.65625 -48.84375 L 34.75 -48.84375 L 34.75 -37.625 L 15.546875 -37.625 L 15.546875 -29.890625 L 34.671875 -29.890625 L 34.671875 -19.0625 L 15.546875 -19.0625 L 15.546875 -11.21875 L 34.75 -11.21875 L 34.75 0 L 2.65625 0 Z M 2.65625 -48.84375 "/></g></g></g><g fill="#02263b" fill-opacity="1"><g transform="translate(379.045474, 281.130592)"><g><path d="M 4.5 -13.390625 C 4.5 -11.398438 4.910156 -9.609375 5.734375 -8.015625 C 6.566406 -6.421875 7.710938 -5.15625 9.171875 -4.21875 C 10.628906 -3.28125 12.300781 -2.8125 14.1875 -2.8125 C 16.09375 -2.8125 17.769531 -3.28125 19.21875 -4.21875 C 20.675781 -5.15625 21.816406 -6.421875 22.640625 -8.015625 C 23.460938 -9.609375 23.875 -11.398438 23.875 -13.390625 C 23.875 -15.367188 23.460938 -17.148438 22.640625 -18.734375 C 21.816406 -20.328125 20.675781 -21.585938 19.21875 -22.515625 C 17.769531 -23.453125 16.09375 -23.921875 14.1875 -23.921875 C 12.300781 -23.921875 10.628906 -23.453125 9.171875 -22.515625 C 7.710938 -21.585938 6.566406 -20.328125 5.734375 -18.734375 C 4.910156 -17.148438 4.5 -15.367188 4.5 -13.390625 Z M 0.90625 -13.390625 C 0.90625 -15.328125 1.238281 -17.132812 1.90625 -18.8125 C 2.582031 -20.5 3.519531 -21.96875 4.71875 -23.21875 C 5.914062 -24.476562 7.320312 -25.457031 8.9375 -26.15625 C 10.550781 -26.863281 12.300781 -27.21875 14.1875 -27.21875 C 16.09375 -27.21875 17.851562 -26.863281 19.46875 -26.15625 C 21.082031 -25.457031 22.484375 -24.476562 23.671875 -23.21875 C 24.867188 -21.96875 25.796875 -20.5 26.453125 -18.8125 C 27.117188 -17.132812 27.453125 -15.328125 27.453125 -13.390625 C 27.453125 -11.429688 27.125 -9.609375 26.46875 -7.921875 C 25.820312 -6.242188 24.898438 -4.773438 23.703125 -3.515625 C 22.503906 -2.253906 21.101562 -1.269531 19.5 -0.5625 C 17.894531 0.132812 16.125 0.484375 14.1875 0.484375 C 12.257812 0.484375 10.484375 0.132812 8.859375 -0.5625 C 7.234375 -1.269531 5.828125 -2.253906 4.640625 -3.515625 C 3.453125 -4.773438 2.53125 -6.242188 1.875 -7.921875 C 1.226562 -9.609375 0.90625 -11.429688 0.90625 -13.390625 Z M 0.90625 -13.390625 "/></g></g></g><g fill="#02263b" fill-opacity="1"><g transform="translate(408.306665, 281.130592)"><g><path d="M 2.234375 -26.734375 L 16.15625 -26.734375 L 16.15625 -23.59375 L 5.671875 -23.59375 L 5.671875 -14.96875 L 15.453125 -14.96875 L 15.453125 -11.84375 L 5.671875 -11.84375 L 5.671875 0 L 2.234375 0 Z M 2.234375 -26.734375 "/></g></g></g><g fill="#02263b" fill-opacity="1"><g transform="translate(426.734135, 281.130592)"><g/></g></g><g fill="#02263b" fill-opacity="1"><g transform="translate(436.838867, 281.130592)"><g><path d="M 2.4375 -26.734375 L 10 -26.734375 C 11.675781 -26.734375 13.1875 -26.457031 14.53125 -25.90625 C 15.875 -25.363281 16.941406 -24.507812 17.734375 -23.34375 C 18.535156 -22.1875 18.9375 -20.675781 18.9375 -18.8125 C 18.9375 -16.957031 18.535156 -15.421875 17.734375 -14.203125 C 16.941406 -12.992188 15.875 -12.085938 14.53125 -11.484375 C 13.1875 -10.890625 11.675781 -10.59375 10 -10.59375 L 5.890625 -10.59375 L 5.890625 0 L 2.4375 0 Z M 5.890625 -13.484375 L 9.046875 -13.484375 C 10.191406 -13.484375 11.234375 -13.648438 12.171875 -13.984375 C 13.117188 -14.328125 13.867188 -14.882812 14.421875 -15.65625 C 14.984375 -16.425781 15.265625 -17.457031 15.265625 -18.75 C 15.265625 -20.0625 14.984375 -21.082031 14.421875 -21.8125 C 13.867188 -22.550781 13.117188 -23.070312 12.171875 -23.375 C 11.234375 -23.675781 10.191406 -23.828125 9.046875 -23.828125 L 5.890625 -23.828125 Z M 5.890625 -13.484375 "/></g></g></g><g fill="#02263b" fill-opacity="1"><g transform="translate(457.838076, 281.130592)"><g><path d="M 10.328125 -26.734375 L 13.9375 -26.734375 L 23.8125 0 L 20.109375 0 L 17.796875 -6.4375 L 6.453125 -6.4375 L 4.109375 0 L 0.40625 0 Z M 7.578125 -9.5625 L 16.703125 -9.5625 L 12.171875 -22.484375 L 12.109375 -22.484375 Z M 7.578125 -9.5625 "/></g></g></g><g fill="#02263b" fill-opacity="1"><g transform="translate(482.300027, 281.130592)"><g><path d="M 2.234375 -26.734375 L 11.5625 -26.734375 C 13.007812 -26.734375 14.320312 -26.429688 15.5 -25.828125 C 16.675781 -25.222656 17.617188 -24.34375 18.328125 -23.1875 C 19.046875 -22.039062 19.40625 -20.632812 19.40625 -18.96875 C 19.40625 -17.320312 19.078125 -15.957031 18.421875 -14.875 C 17.765625 -13.800781 16.976562 -12.988281 16.0625 -12.4375 C 15.144531 -11.894531 14.289062 -11.597656 13.5 -11.546875 L 20.125 0 L 16.203125 0 L 10 -11.296875 L 5.6875 -11.296875 L 5.6875 0 L 2.234375 0 Z M 5.6875 -13.875 L 10.34375 -13.875 C 11.9375 -13.875 13.253906 -14.269531 14.296875 -15.0625 C 15.335938 -15.863281 15.859375 -17.140625 15.859375 -18.890625 C 15.859375 -20.648438 15.335938 -21.910156 14.296875 -22.671875 C 13.265625 -23.441406 11.957031 -23.828125 10.375 -23.828125 L 5.6875 -23.828125 Z M 5.6875 -13.875 "/></g></g></g><g fill="#02263b" fill-opacity="1"><g transform="translate(504.757236, 281.130592)"><g><path d="M 7.75 -23.59375 L 0.546875 -23.59375 L 0.546875 -26.734375 L 18.453125 -26.734375 L 18.453125 -23.59375 L 11.234375 -23.59375 L 11.234375 0 L 7.75 0 Z M 7.75 -23.59375 "/></g></g></g><g fill="#02263b" fill-opacity="1"><g transform="translate(524.784453, 281.130592)"><g><path d="M 2.53125 -26.734375 L 6.015625 -26.734375 L 6.015625 0 L 2.53125 0 Z M 2.53125 -26.734375 "/></g></g></g><g fill="#02263b" fill-opacity="1"><g transform="translate(534.241186, 281.130592)"><g><path d="M 15.203125 -2.9375 C 16.867188 -2.9375 18.3125 -3.164062 19.53125 -3.625 C 20.75 -4.082031 21.617188 -4.53125 22.140625 -4.96875 L 23.65625 -1.984375 C 23.039062 -1.441406 21.976562 -0.894531 20.46875 -0.34375 C 18.96875 0.207031 17.164062 0.484375 15.0625 0.484375 C 13.09375 0.484375 11.265625 0.132812 9.578125 -0.5625 C 7.890625 -1.269531 6.414062 -2.25 5.15625 -3.5 C 3.894531 -4.757812 2.910156 -6.222656 2.203125 -7.890625 C 1.492188 -9.566406 1.140625 -11.378906 1.140625 -13.328125 C 1.140625 -15.265625 1.488281 -17.078125 2.1875 -18.765625 C 2.882812 -20.453125 3.863281 -21.925781 5.125 -23.1875 C 6.394531 -24.457031 7.875 -25.445312 9.5625 -26.15625 C 11.257812 -26.863281 13.09375 -27.21875 15.0625 -27.21875 C 17.164062 -27.21875 18.96875 -26.941406 20.46875 -26.390625 C 21.976562 -25.835938 23.039062 -25.289062 23.65625 -24.75 L 22.140625 -21.765625 C 21.617188 -22.210938 20.75 -22.660156 19.53125 -23.109375 C 18.3125 -23.566406 16.867188 -23.796875 15.203125 -23.796875 C 13.691406 -23.796875 12.304688 -23.535156 11.046875 -23.015625 C 9.796875 -22.503906 8.707031 -21.78125 7.78125 -20.84375 C 6.863281 -19.90625 6.148438 -18.800781 5.640625 -17.53125 C 5.128906 -16.269531 4.875 -14.890625 4.875 -13.390625 C 4.875 -11.878906 5.128906 -10.484375 5.640625 -9.203125 C 6.148438 -7.929688 6.863281 -6.820312 7.78125 -5.875 C 8.707031 -4.9375 9.796875 -4.210938 11.046875 -3.703125 C 12.304688 -3.191406 13.691406 -2.9375 15.203125 -2.9375 Z M 15.203125 -2.9375 "/></g></g></g><g fill="#02263b" fill-opacity="1"><g transform="translate(559.816888, 281.130592)"><g><path d="M 2.53125 -26.734375 L 6.015625 -26.734375 L 6.015625 0 L 2.53125 0 Z M 2.53125 -26.734375 "/></g></g></g><g fill="#02263b" fill-opacity="1"><g transform="translate(569.273621, 281.130592)"><g><path d="M 2.4375 -26.734375 L 10 -26.734375 C 11.675781 -26.734375 13.1875 -26.457031 14.53125 -25.90625 C 15.875 -25.363281 16.941406 -24.507812 17.734375 -23.34375 C 18.535156 -22.1875 18.9375 -20.675781 18.9375 -18.8125 C 18.9375 -16.957031 18.535156 -15.421875 17.734375 -14.203125 C 16.941406 -12.992188 15.875 -12.085938 14.53125 -11.484375 C 13.1875 -10.890625 11.675781 -10.59375 10 -10.59375 L 5.890625 -10.59375 L 5.890625 0 L 2.4375 0 Z M 5.890625 -13.484375 L 9.046875 -13.484375 C 10.191406 -13.484375 11.234375 -13.648438 12.171875 -13.984375 C 13.117188 -14.328125 13.867188 -14.882812 14.421875 -15.65625 C 14.984375 -16.425781 15.265625 -17.457031 15.265625 -18.75 C 15.265625 -20.0625 14.984375 -21.082031 14.421875 -21.8125 C 13.867188 -22.550781 13.117188 -23.070312 12.171875 -23.375 C 11.234375 -23.675781 10.191406 -23.828125 9.046875 -23.828125 L 5.890625 -23.828125 Z M 5.890625 -13.484375 "/></g></g></g><g fill="#02263b" fill-opacity="1"><g transform="translate(590.272819, 281.130592)"><g><path d="M 10.328125 -26.734375 L 13.9375 -26.734375 L 23.8125 0 L 20.109375 0 L 17.796875 -6.4375 L 6.453125 -6.4375 L 4.109375 0 L 0.40625 0 Z M 7.578125 -9.5625 L 16.703125 -9.5625 L 12.171875 -22.484375 L 12.109375 -22.484375 Z M 7.578125 -9.5625 "/></g></g></g><g fill="#02263b" fill-opacity="1"><g transform="translate(614.73477, 281.130592)"><g><path d="M 7.75 -23.59375 L 0.546875 -23.59375 L 0.546875 -26.734375 L 18.453125 -26.734375 L 18.453125 -23.59375 L 11.234375 -23.59375 L 11.234375 0 L 7.75 0 Z M 7.75 -23.59375 "/></g></g></g><g fill="#02263b" fill-opacity="1"><g transform="translate(634.761998, 281.130592)"><g><path d="M 2.53125 -26.734375 L 6.015625 -26.734375 L 6.015625 0 L 2.53125 0 Z M 2.53125 -26.734375 "/></g></g></g><g fill="#02263b" fill-opacity="1"><g transform="translate(644.218731, 281.130592)"><g><path d="M 4.5 -13.390625 C 4.5 -11.398438 4.910156 -9.609375 5.734375 -8.015625 C 6.566406 -6.421875 7.710938 -5.15625 9.171875 -4.21875 C 10.628906 -3.28125 12.300781 -2.8125 14.1875 -2.8125 C 16.09375 -2.8125 17.769531 -3.28125 19.21875 -4.21875 C 20.675781 -5.15625 21.816406 -6.421875 22.640625 -8.015625 C 23.460938 -9.609375 23.875 -11.398438 23.875 -13.390625 C 23.875 -15.367188 23.460938 -17.148438 22.640625 -18.734375 C 21.816406 -20.328125 20.675781 -21.585938 19.21875 -22.515625 C 17.769531 -23.453125 16.09375 -23.921875 14.1875 -23.921875 C 12.300781 -23.921875 10.628906 -23.453125 9.171875 -22.515625 C 7.710938 -21.585938 6.566406 -20.328125 5.734375 -18.734375 C 4.910156 -17.148438 4.5 -15.367188 4.5 -13.390625 Z M 0.90625 -13.390625 C 0.90625 -15.328125 1.238281 -17.132812 1.90625 -18.8125 C 2.582031 -20.5 3.519531 -21.96875 4.71875 -23.21875 C 5.914062 -24.476562 7.320312 -25.457031 8.9375 -26.15625 C 10.550781 -26.863281 12.300781 -27.21875 14.1875 -27.21875 C 16.09375 -27.21875 17.851562 -26.863281 19.46875 -26.15625 C 21.082031 -25.457031 22.484375 -24.476562 23.671875 -23.21875 C 24.867188 -21.96875 25.796875 -20.5 26.453125 -18.8125 C 27.117188 -17.132812 27.453125 -15.328125 27.453125 -13.390625 C 27.453125 -11.429688 27.125 -9.609375 26.46875 -7.921875 C 25.820312 -6.242188 24.898438 -4.773438 23.703125 -3.515625 C 22.503906 -2.253906 21.101562 -1.269531 19.5 -0.5625 C 17.894531 0.132812 16.125 0.484375 14.1875 0.484375 C 12.257812 0.484375 10.484375 0.132812 8.859375 -0.5625 C 7.234375 -1.269531 5.828125 -2.253906 4.640625 -3.515625 C 3.453125 -4.773438 2.53125 -6.242188 1.875 -7.921875 C 1.226562 -9.609375 0.90625 -11.429688 0.90625 -13.390625 Z M 0.90625 -13.390625 "/></g></g></g><g fill="#02263b" fill-opacity="1"><g transform="translate(673.479922, 281.130592)"><g><path d="M 5.484375 -23.453125 L 5.703125 -23.40625 L 5.703125 0 L 2.25 0 L 2.25 -26.734375 L 7.125 -26.734375 L 21 -3.34375 L 20.78125 -3.296875 L 20.78125 -26.734375 L 24.234375 -26.734375 L 24.234375 0 L 19.3125 0 Z M 5.484375 -23.453125 "/></g></g></g><g fill="#02263b" fill-opacity="1"><g transform="translate(396.295941, 338.716292)"><g><path d="M 3.625 -11.046875 L 0.25 -11.046875 L 0.25 -12.515625 L 8.640625 -12.515625 L 8.640625 -11.046875 L 5.265625 -11.046875 L 5.265625 0 L 3.625 0 Z M 3.625 -11.046875 "/></g></g></g><g fill="#02263b" fill-opacity="1"><g transform="translate(405.672188, 338.716292)"><g><path d="M 8.65625 -5.546875 L 2.65625 -5.546875 L 2.65625 0 L 1.046875 0 L 1.046875 -12.515625 L 2.65625 -12.515625 L 2.65625 -7.015625 L 8.65625 -7.015625 L 8.65625 -12.515625 L 10.265625 -12.515625 L 10.265625 0 L 8.65625 0 Z M 8.65625 -5.546875 "/></g></g></g><g fill="#02263b" fill-opacity="1"><g transform="translate(417.437538, 338.716292)"><g><path d="M 1.1875 -12.515625 L 2.8125 -12.515625 L 2.8125 0 L 1.1875 0 Z M 1.1875 -12.515625 "/></g></g></g><g fill="#02263b" fill-opacity="1"><g transform="translate(421.864948, 338.716292)"><g><path d="M 4.9375 -12.75 C 5.65625 -12.75 6.273438 -12.664062 6.796875 -12.5 C 7.328125 -12.332031 7.738281 -12.15625 8.03125 -11.96875 C 8.332031 -11.789062 8.515625 -11.675781 8.578125 -11.625 L 7.734375 -10.28125 C 7.640625 -10.363281 7.472656 -10.484375 7.234375 -10.640625 C 6.992188 -10.796875 6.691406 -10.929688 6.328125 -11.046875 C 5.972656 -11.171875 5.566406 -11.234375 5.109375 -11.234375 C 4.390625 -11.234375 3.820312 -11.085938 3.40625 -10.796875 C 2.988281 -10.515625 2.78125 -10.113281 2.78125 -9.59375 C 2.78125 -9.238281 2.890625 -8.925781 3.109375 -8.65625 C 3.328125 -8.382812 3.632812 -8.140625 4.03125 -7.921875 C 4.4375 -7.703125 4.90625 -7.472656 5.4375 -7.234375 C 5.875 -7.054688 6.300781 -6.847656 6.71875 -6.609375 C 7.132812 -6.378906 7.515625 -6.101562 7.859375 -5.78125 C 8.210938 -5.46875 8.488281 -5.101562 8.6875 -4.6875 C 8.894531 -4.269531 9 -3.789062 9 -3.25 C 9 -2.707031 8.890625 -2.21875 8.671875 -1.78125 C 8.453125 -1.351562 8.144531 -0.988281 7.75 -0.6875 C 7.351562 -0.394531 6.894531 -0.164062 6.375 0 C 5.851562 0.15625 5.285156 0.234375 4.671875 0.234375 C 3.910156 0.234375 3.21875 0.140625 2.59375 -0.046875 C 1.976562 -0.242188 1.484375 -0.445312 1.109375 -0.65625 C 0.734375 -0.863281 0.519531 -0.992188 0.46875 -1.046875 L 1.34375 -2.4375 C 1.414062 -2.375 1.550781 -2.28125 1.75 -2.15625 C 1.957031 -2.03125 2.207031 -1.898438 2.5 -1.765625 C 2.800781 -1.640625 3.140625 -1.53125 3.515625 -1.4375 C 3.890625 -1.34375 4.289062 -1.296875 4.71875 -1.296875 C 5.5625 -1.296875 6.203125 -1.484375 6.640625 -1.859375 C 7.078125 -2.242188 7.296875 -2.734375 7.296875 -3.328125 C 7.296875 -3.785156 7.15625 -4.175781 6.875 -4.5 C 6.59375 -4.832031 6.222656 -5.128906 5.765625 -5.390625 C 5.304688 -5.648438 4.796875 -5.898438 4.234375 -6.140625 C 3.671875 -6.398438 3.148438 -6.679688 2.671875 -6.984375 C 2.203125 -7.296875 1.820312 -7.664062 1.53125 -8.09375 C 1.238281 -8.53125 1.09375 -9.054688 1.09375 -9.671875 C 1.09375 -10.273438 1.265625 -10.804688 1.609375 -11.265625 C 1.960938 -11.734375 2.429688 -12.097656 3.015625 -12.359375 C 3.597656 -12.617188 4.238281 -12.75 4.9375 -12.75 Z M 4.9375 -12.75 "/></g></g></g><g fill="#02263b" fill-opacity="1"><g transform="translate(431.876399, 338.716292)"><g/></g></g><g fill="#02263b" fill-opacity="1"><g transform="translate(436.607192, 338.716292)"><g><path d="M 7.125 -1.375 C 7.90625 -1.375 8.578125 -1.476562 9.140625 -1.6875 C 9.710938 -1.90625 10.117188 -2.117188 10.359375 -2.328125 L 11.078125 -0.921875 C 10.796875 -0.671875 10.300781 -0.414062 9.59375 -0.15625 C 8.882812 0.101562 8.039062 0.234375 7.0625 0.234375 C 6.132812 0.234375 5.273438 0.0664062 4.484375 -0.265625 C 3.691406 -0.597656 3 -1.054688 2.40625 -1.640625 C 1.820312 -2.222656 1.363281 -2.90625 1.03125 -3.6875 C 0.695312 -4.476562 0.53125 -5.328125 0.53125 -6.234375 C 0.53125 -7.148438 0.691406 -8.003906 1.015625 -8.796875 C 1.347656 -9.585938 1.8125 -10.273438 2.40625 -10.859375 C 3 -11.453125 3.691406 -11.914062 4.484375 -12.25 C 5.273438 -12.582031 6.132812 -12.75 7.0625 -12.75 C 8.039062 -12.75 8.882812 -12.617188 9.59375 -12.359375 C 10.300781 -12.097656 10.796875 -11.84375 11.078125 -11.59375 L 10.359375 -10.203125 C 10.117188 -10.410156 9.710938 -10.617188 9.140625 -10.828125 C 8.578125 -11.035156 7.90625 -11.140625 7.125 -11.140625 C 6.414062 -11.140625 5.765625 -11.019531 5.171875 -10.78125 C 4.585938 -10.539062 4.078125 -10.203125 3.640625 -9.765625 C 3.210938 -9.328125 2.878906 -8.8125 2.640625 -8.21875 C 2.398438 -7.625 2.28125 -6.972656 2.28125 -6.265625 C 2.28125 -5.554688 2.398438 -4.90625 2.640625 -4.3125 C 2.878906 -3.71875 3.210938 -3.195312 3.640625 -2.75 C 4.078125 -2.3125 4.585938 -1.972656 5.171875 -1.734375 C 5.765625 -1.492188 6.414062 -1.375 7.125 -1.375 Z M 7.125 -1.375 "/></g></g></g><g fill="#02263b" fill-opacity="1"><g transform="translate(448.58111, 338.716292)"><g><path d="M 1.046875 -12.515625 L 8.453125 -12.515625 L 8.453125 -11.046875 L 2.65625 -11.046875 L 2.65625 -6.984375 L 8.34375 -6.984375 L 8.34375 -5.5625 L 2.65625 -5.5625 L 2.65625 -1.46875 L 8.453125 -1.46875 L 8.453125 0 L 1.046875 0 Z M 1.046875 -12.515625 "/></g></g></g><g fill="#02263b" fill-opacity="1"><g transform="translate(458.545148, 338.716292)"><g><path d="M 1.046875 -12.515625 L 5.421875 -12.515625 C 6.097656 -12.515625 6.710938 -12.375 7.265625 -12.09375 C 7.816406 -11.8125 8.257812 -11.398438 8.59375 -10.859375 C 8.925781 -10.316406 9.09375 -9.660156 9.09375 -8.890625 C 9.09375 -8.117188 8.9375 -7.476562 8.625 -6.96875 C 8.320312 -6.46875 7.953125 -6.085938 7.515625 -5.828125 C 7.085938 -5.566406 6.691406 -5.425781 6.328125 -5.40625 L 9.421875 0 L 7.59375 0 L 4.6875 -5.296875 L 2.671875 -5.296875 L 2.671875 0 L 1.046875 0 Z M 2.671875 -6.5 L 4.84375 -6.5 C 5.59375 -6.5 6.207031 -6.679688 6.6875 -7.046875 C 7.175781 -7.421875 7.421875 -8.019531 7.421875 -8.84375 C 7.421875 -9.664062 7.175781 -10.253906 6.6875 -10.609375 C 6.207031 -10.972656 5.597656 -11.15625 4.859375 -11.15625 L 2.671875 -11.15625 Z M 2.671875 -6.5 "/></g></g></g><g fill="#02263b" fill-opacity="1"><g transform="translate(469.059064, 338.716292)"><g><path d="M 3.625 -11.046875 L 0.25 -11.046875 L 0.25 -12.515625 L 8.640625 -12.515625 L 8.640625 -11.046875 L 5.265625 -11.046875 L 5.265625 0 L 3.625 0 Z M 3.625 -11.046875 "/></g></g></g><g fill="#02263b" fill-opacity="1"><g transform="translate(478.435311, 338.716292)"><g><path d="M 1.1875 -12.515625 L 2.8125 -12.515625 L 2.8125 0 L 1.1875 0 Z M 1.1875 -12.515625 "/></g></g></g><g fill="#02263b" fill-opacity="1"><g transform="translate(482.862721, 338.716292)"><g><path d="M 1.046875 -12.515625 L 7.5625 -12.515625 L 7.5625 -11.046875 L 2.65625 -11.046875 L 2.65625 -7.015625 L 7.234375 -7.015625 L 7.234375 -5.546875 L 2.65625 -5.546875 L 2.65625 0 L 1.046875 0 Z M 1.046875 -12.515625 "/></g></g></g><g fill="#02263b" fill-opacity="1"><g transform="translate(491.490009, 338.716292)"><g><path d="M 1.1875 -12.515625 L 2.8125 -12.515625 L 2.8125 0 L 1.1875 0 Z M 1.1875 -12.515625 "/></g></g></g><g fill="#02263b" fill-opacity="1"><g transform="translate(495.917419, 338.716292)"><g><path d="M 7.125 -1.375 C 7.90625 -1.375 8.578125 -1.476562 9.140625 -1.6875 C 9.710938 -1.90625 10.117188 -2.117188 10.359375 -2.328125 L 11.078125 -0.921875 C 10.796875 -0.671875 10.300781 -0.414062 9.59375 -0.15625 C 8.882812 0.101562 8.039062 0.234375 7.0625 0.234375 C 6.132812 0.234375 5.273438 0.0664062 4.484375 -0.265625 C 3.691406 -0.597656 3 -1.054688 2.40625 -1.640625 C 1.820312 -2.222656 1.363281 -2.90625 1.03125 -3.6875 C 0.695312 -4.476562 0.53125 -5.328125 0.53125 -6.234375 C 0.53125 -7.148438 0.691406 -8.003906 1.015625 -8.796875 C 1.347656 -9.585938 1.8125 -10.273438 2.40625 -10.859375 C 3 -11.453125 3.691406 -11.914062 4.484375 -12.25 C 5.273438 -12.582031 6.132812 -12.75 7.0625 -12.75 C 8.039062 -12.75 8.882812 -12.617188 9.59375 -12.359375 C 10.300781 -12.097656 10.796875 -11.84375 11.078125 -11.59375 L 10.359375 -10.203125 C 10.117188 -10.410156 9.710938 -10.617188 9.140625 -10.828125 C 8.578125 -11.035156 7.90625 -11.140625 7.125 -11.140625 C 6.414062 -11.140625 5.765625 -11.019531 5.171875 -10.78125 C 4.585938 -10.539062 4.078125 -10.203125 3.640625 -9.765625 C 3.210938 -9.328125 2.878906 -8.8125 2.640625 -8.21875 C 2.398438 -7.625 2.28125 -6.972656 2.28125 -6.265625 C 2.28125 -5.554688 2.398438 -4.90625 2.640625 -4.3125 C 2.878906 -3.71875 3.210938 -3.195312 3.640625 -2.75 C 4.078125 -2.3125 4.585938 -1.972656 5.171875 -1.734375 C 5.765625 -1.492188 6.414062 -1.375 7.125 -1.375 Z M 7.125 -1.375 "/></g></g></g><g fill="#02263b" fill-opacity="1"><g transform="translate(507.891337, 338.716292)"><g><path d="M 4.84375 -12.515625 L 6.53125 -12.515625 L 11.15625 0 L 9.421875 0 L 8.34375 -3.015625 L 3.03125 -3.015625 L 1.921875 0 L 0.1875 0 Z M 3.546875 -4.484375 L 7.828125 -4.484375 L 5.703125 -10.53125 L 5.671875 -10.53125 Z M 3.546875 -4.484375 "/></g></g></g><g fill="#02263b" fill-opacity="1"><g transform="translate(519.343828, 338.716292)"><g><path d="M 3.625 -11.046875 L 0.25 -11.046875 L 0.25 -12.515625 L 8.640625 -12.515625 L 8.640625 -11.046875 L 5.265625 -11.046875 L 5.265625 0 L 3.625 0 Z M 3.625 -11.046875 "/></g></g></g><g fill="#02263b" fill-opacity="1"><g transform="translate(528.720075, 338.716292)"><g><path d="M 1.046875 -12.515625 L 8.453125 -12.515625 L 8.453125 -11.046875 L 2.65625 -11.046875 L 2.65625 -6.984375 L 8.34375 -6.984375 L 8.34375 -5.5625 L 2.65625 -5.5625 L 2.65625 -1.46875 L 8.453125 -1.46875 L 8.453125 0 L 1.046875 0 Z M 1.046875 -12.515625 "/></g></g></g><g fill="#02263b" fill-opacity="1"><g transform="translate(538.684114, 338.716292)"><g/></g></g><g fill="#02263b" fill-opacity="1"><g transform="translate(543.414907, 338.716292)"><g><path d="M 1.1875 -12.515625 L 2.8125 -12.515625 L 2.8125 0 L 1.1875 0 Z M 1.1875 -12.515625 "/></g></g></g><g fill="#02263b" fill-opacity="1"><g transform="translate(547.842316, 338.716292)"><g><path d="M 4.9375 -12.75 C 5.65625 -12.75 6.273438 -12.664062 6.796875 -12.5 C 7.328125 -12.332031 7.738281 -12.15625 8.03125 -11.96875 C 8.332031 -11.789062 8.515625 -11.675781 8.578125 -11.625 L 7.734375 -10.28125 C 7.640625 -10.363281 7.472656 -10.484375 7.234375 -10.640625 C 6.992188 -10.796875 6.691406 -10.929688 6.328125 -11.046875 C 5.972656 -11.171875 5.566406 -11.234375 5.109375 -11.234375 C 4.390625 -11.234375 3.820312 -11.085938 3.40625 -10.796875 C 2.988281 -10.515625 2.78125 -10.113281 2.78125 -9.59375 C 2.78125 -9.238281 2.890625 -8.925781 3.109375 -8.65625 C 3.328125 -8.382812 3.632812 -8.140625 4.03125 -7.921875 C 4.4375 -7.703125 4.90625 -7.472656 5.4375 -7.234375 C 5.875 -7.054688 6.300781 -6.847656 6.71875 -6.609375 C 7.132812 -6.378906 7.515625 -6.101562 7.859375 -5.78125 C 8.210938 -5.46875 8.488281 -5.101562 8.6875 -4.6875 C 8.894531 -4.269531 9 -3.789062 9 -3.25 C 9 -2.707031 8.890625 -2.21875 8.671875 -1.78125 C 8.453125 -1.351562 8.144531 -0.988281 7.75 -0.6875 C 7.351562 -0.394531 6.894531 -0.164062 6.375 0 C 5.851562 0.15625 5.285156 0.234375 4.671875 0.234375 C 3.910156 0.234375 3.21875 0.140625 2.59375 -0.046875 C 1.976562 -0.242188 1.484375 -0.445312 1.109375 -0.65625 C 0.734375 -0.863281 0.519531 -0.992188 0.46875 -1.046875 L 1.34375 -2.4375 C 1.414062 -2.375 1.550781 -2.28125 1.75 -2.15625 C 1.957031 -2.03125 2.207031 -1.898438 2.5 -1.765625 C 2.800781 -1.640625 3.140625 -1.53125 3.515625 -1.4375 C 3.890625 -1.34375 4.289062 -1.296875 4.71875 -1.296875 C 5.5625 -1.296875 6.203125 -1.484375 6.640625 -1.859375 C 7.078125 -2.242188 7.296875 -2.734375 7.296875 -3.328125 C 7.296875 -3.785156 7.15625 -4.175781 6.875 -4.5 C 6.59375 -4.832031 6.222656 -5.128906 5.765625 -5.390625 C 5.304688 -5.648438 4.796875 -5.898438 4.234375 -6.140625 C 3.671875 -6.398438 3.148438 -6.679688 2.671875 -6.984375 C 2.203125 -7.296875 1.820312 -7.664062 1.53125 -8.09375 C 1.238281 -8.53125 1.09375 -9.054688 1.09375 -9.671875 C 1.09375 -10.273438 1.265625 -10.804688 1.609375 -11.265625 C 1.960938 -11.734375 2.429688 -12.097656 3.015625 -12.359375 C 3.597656 -12.617188 4.238281 -12.75 4.9375 -12.75 Z M 4.9375 -12.75 "/></g></g></g><g fill="#02263b" fill-opacity="1"><g transform="translate(557.853768, 338.716292)"><g/></g></g><g fill="#02263b" fill-opacity="1"><g transform="translate(562.58456, 338.716292)"><g><path d="M 1.140625 -12.515625 L 4.6875 -12.515625 C 5.46875 -12.515625 6.171875 -12.382812 6.796875 -12.125 C 7.429688 -11.875 7.9375 -11.476562 8.3125 -10.9375 C 8.6875 -10.394531 8.875 -9.6875 8.875 -8.8125 C 8.875 -7.945312 8.6875 -7.226562 8.3125 -6.65625 C 7.9375 -6.082031 7.429688 -5.65625 6.796875 -5.375 C 6.171875 -5.09375 5.46875 -4.953125 4.6875 -4.953125 L 2.765625 -4.953125 L 2.765625 0 L 1.140625 0 Z M 2.765625 -6.3125 L 4.234375 -6.3125 C 4.773438 -6.3125 5.265625 -6.390625 5.703125 -6.546875 C 6.140625 -6.710938 6.488281 -6.972656 6.75 -7.328125 C 7.019531 -7.691406 7.15625 -8.175781 7.15625 -8.78125 C 7.15625 -9.394531 7.019531 -9.875 6.75 -10.21875 C 6.488281 -10.5625 6.140625 -10.800781 5.703125 -10.9375 C 5.265625 -11.082031 4.773438 -11.15625 4.234375 -11.15625 L 2.765625 -11.15625 Z M 2.765625 -6.3125 "/></g></g></g><g fill="#02263b" fill-opacity="1"><g transform="translate(572.41587, 338.716292)"><g><path d="M 1.046875 -12.515625 L 5.421875 -12.515625 C 6.097656 -12.515625 6.710938 -12.375 7.265625 -12.09375 C 7.816406 -11.8125 8.257812 -11.398438 8.59375 -10.859375 C 8.925781 -10.316406 9.09375 -9.660156 9.09375 -8.890625 C 9.09375 -8.117188 8.9375 -7.476562 8.625 -6.96875 C 8.320312 -6.46875 7.953125 -6.085938 7.515625 -5.828125 C 7.085938 -5.566406 6.691406 -5.425781 6.328125 -5.40625 L 9.421875 0 L 7.59375 0 L 4.6875 -5.296875 L 2.671875 -5.296875 L 2.671875 0 L 1.046875 0 Z M 2.671875 -6.5 L 4.84375 -6.5 C 5.59375 -6.5 6.207031 -6.679688 6.6875 -7.046875 C 7.175781 -7.421875 7.421875 -8.019531 7.421875 -8.84375 C 7.421875 -9.664062 7.175781 -10.253906 6.6875 -10.609375 C 6.207031 -10.972656 5.597656 -11.15625 4.859375 -11.15625 L 2.671875 -11.15625 Z M 2.671875 -6.5 "/></g></g></g><g fill="#02263b" fill-opacity="1"><g transform="translate(582.929786, 338.716292)"><g><path d="M 1.046875 -12.515625 L 8.453125 -12.515625 L 8.453125 -11.046875 L 2.65625 -11.046875 L 2.65625 -6.984375 L 8.34375 -6.984375 L 8.34375 -5.5625 L 2.65625 -5.5625 L 2.65625 -1.46875 L 8.453125 -1.46875 L 8.453125 0 L 1.046875 0 Z M 1.046875 -12.515625 "/></g></g></g><g fill="#02263b" fill-opacity="1"><g transform="translate(592.893824, 338.716292)"><g><path d="M 4.9375 -12.75 C 5.65625 -12.75 6.273438 -12.664062 6.796875 -12.5 C 7.328125 -12.332031 7.738281 -12.15625 8.03125 -11.96875 C 8.332031 -11.789062 8.515625 -11.675781 8.578125 -11.625 L 7.734375 -10.28125 C 7.640625 -10.363281 7.472656 -10.484375 7.234375 -10.640625 C 6.992188 -10.796875 6.691406 -10.929688 6.328125 -11.046875 C 5.972656 -11.171875 5.566406 -11.234375 5.109375 -11.234375 C 4.390625 -11.234375 3.820312 -11.085938 3.40625 -10.796875 C 2.988281 -10.515625 2.78125 -10.113281 2.78125 -9.59375 C 2.78125 -9.238281 2.890625 -8.925781 3.109375 -8.65625 C 3.328125 -8.382812 3.632812 -8.140625 4.03125 -7.921875 C 4.4375 -7.703125 4.90625 -7.472656 5.4375 -7.234375 C 5.875 -7.054688 6.300781 -6.847656 6.71875 -6.609375 C 7.132812 -6.378906 7.515625 -6.101562 7.859375 -5.78125 C 8.210938 -5.46875 8.488281 -5.101562 8.6875 -4.6875 C 8.894531 -4.269531 9 -3.789062 9 -3.25 C 9 -2.707031 8.890625 -2.21875 8.671875 -1.78125 C 8.453125 -1.351562 8.144531 -0.988281 7.75 -0.6875 C 7.351562 -0.394531 6.894531 -0.164062 6.375 0 C 5.851562 0.15625 5.285156 0.234375 4.671875 0.234375 C 3.910156 0.234375 3.21875 0.140625 2.59375 -0.046875 C 1.976562 -0.242188 1.484375 -0.445312 1.109375 -0.65625 C 0.734375 -0.863281 0.519531 -0.992188 0.46875 -1.046875 L 1.34375 -2.4375 C 1.414062 -2.375 1.550781 -2.28125 1.75 -2.15625 C 1.957031 -2.03125 2.207031 -1.898438 2.5 -1.765625 C 2.800781 -1.640625 3.140625 -1.53125 3.515625 -1.4375 C 3.890625 -1.34375 4.289062 -1.296875 4.71875 -1.296875 C 5.5625 -1.296875 6.203125 -1.484375 6.640625 -1.859375 C 7.078125 -2.242188 7.296875 -2.734375 7.296875 -3.328125 C 7.296875 -3.785156 7.15625 -4.175781 6.875 -4.5 C 6.59375 -4.832031 6.222656 -5.128906 5.765625 -5.390625 C 5.304688 -5.648438 4.796875 -5.898438 4.234375 -6.140625 C 3.671875 -6.398438 3.148438 -6.679688 2.671875 -6.984375 C 2.203125 -7.296875 1.820312 -7.664062 1.53125 -8.09375 C 1.238281 -8.53125 1.09375 -9.054688 1.09375 -9.671875 C 1.09375 -10.273438 1.265625 -10.804688 1.609375 -11.265625 C 1.960938 -11.734375 2.429688 -12.097656 3.015625 -12.359375 C 3.597656 -12.617188 4.238281 -12.75 4.9375 -12.75 Z M 4.9375 -12.75 "/></g></g></g><g fill="#02263b" fill-opacity="1"><g transform="translate(602.905275, 338.716292)"><g><path d="M 1.046875 -12.515625 L 8.453125 -12.515625 L 8.453125 -11.046875 L 2.65625 -11.046875 L 2.65625 -6.984375 L 8.34375 -6.984375 L 8.34375 -5.5625 L 2.65625 -5.5625 L 2.65625 -1.46875 L 8.453125 -1.46875 L 8.453125 0 L 1.046875 0 Z M 1.046875 -12.515625 "/></g></g></g><g fill="#02263b" fill-opacity="1"><g transform="translate(612.869325, 338.716292)"><g><path d="M 2.5625 -10.984375 L 2.671875 -10.96875 L 2.671875 0 L 1.046875 0 L 1.046875 -12.515625 L 3.34375 -12.515625 L 9.828125 -1.5625 L 9.734375 -1.546875 L 9.734375 -12.515625 L 11.359375 -12.515625 L 11.359375 0 L 9.046875 0 Z M 2.5625 -10.984375 "/></g></g></g><g fill="#02263b" fill-opacity="1"><g transform="translate(625.72493, 338.716292)"><g><path d="M 3.625 -11.046875 L 0.25 -11.046875 L 0.25 -12.515625 L 8.640625 -12.515625 L 8.640625 -11.046875 L 5.265625 -11.046875 L 5.265625 0 L 3.625 0 Z M 3.625 -11.046875 "/></g></g></g><g fill="#02263b" fill-opacity="1"><g transform="translate(635.101166, 338.716292)"><g><path d="M 1.046875 -12.515625 L 8.453125 -12.515625 L 8.453125 -11.046875 L 2.65625 -11.046875 L 2.65625 -6.984375 L 8.34375 -6.984375 L 8.34375 -5.5625 L 2.65625 -5.5625 L 2.65625 -1.46875 L 8.453125 -1.46875 L 8.453125 0 L 1.046875 0 Z M 1.046875 -12.515625 "/></g></g></g><g fill="#02263b" fill-opacity="1"><g transform="translate(645.065216, 338.716292)"><g><path d="M 1 -12.515625 L 3.953125 -12.515625 C 5.285156 -12.515625 6.382812 -12.25 7.25 -11.71875 C 8.113281 -11.1875 8.753906 -10.445312 9.171875 -9.5 C 9.585938 -8.5625 9.796875 -7.484375 9.796875 -6.265625 C 9.796875 -5.046875 9.585938 -3.960938 9.171875 -3.015625 C 8.753906 -2.078125 8.113281 -1.335938 7.25 -0.796875 C 6.394531 -0.265625 5.296875 0 3.953125 0 L 1 0 Z M 2.625 -11.046875 L 2.625 -1.484375 L 3.828125 -1.484375 C 4.804688 -1.484375 5.609375 -1.6875 6.234375 -2.09375 C 6.859375 -2.507812 7.320312 -3.070312 7.625 -3.78125 C 7.925781 -4.5 8.082031 -5.320312 8.09375 -6.25 C 8.09375 -7.175781 7.941406 -8 7.640625 -8.71875 C 7.347656 -9.4375 6.882812 -10.003906 6.25 -10.421875 C 5.613281 -10.835938 4.804688 -11.046875 3.828125 -11.046875 Z M 2.625 -11.046875 "/></g></g></g><g fill="#02263b" fill-opacity="1"><g transform="translate(655.873015, 338.716292)"><g/></g></g><g fill="#02263b" fill-opacity="1"><g transform="translate(660.60382, 338.716292)"><g><path d="M 3.625 -11.046875 L 0.25 -11.046875 L 0.25 -12.515625 L 8.640625 -12.515625 L 8.640625 -11.046875 L 5.265625 -11.046875 L 5.265625 0 L 3.625 0 Z M 3.625 -11.046875 "/></g></g></g><g fill="#02263b" fill-opacity="1"><g transform="translate(669.980055, 338.716292)"><g><path d="M 2.109375 -6.265625 C 2.109375 -5.335938 2.300781 -4.5 2.6875 -3.75 C 3.070312 -3.007812 3.609375 -2.414062 4.296875 -1.96875 C 4.984375 -1.53125 5.769531 -1.3125 6.65625 -1.3125 C 7.539062 -1.3125 8.320312 -1.53125 9 -1.96875 C 9.6875 -2.414062 10.222656 -3.007812 10.609375 -3.75 C 10.992188 -4.5 11.1875 -5.335938 11.1875 -6.265625 C 11.1875 -7.191406 10.992188 -8.023438 10.609375 -8.765625 C 10.222656 -9.515625 9.6875 -10.109375 9 -10.546875 C 8.320312 -10.984375 7.539062 -11.203125 6.65625 -11.203125 C 5.769531 -11.203125 4.984375 -10.984375 4.296875 -10.546875 C 3.609375 -10.109375 3.070312 -9.515625 2.6875 -8.765625 C 2.300781 -8.023438 2.109375 -7.191406 2.109375 -6.265625 Z M 0.421875 -6.265625 C 0.421875 -7.179688 0.578125 -8.03125 0.890625 -8.8125 C 1.203125 -9.601562 1.640625 -10.289062 2.203125 -10.875 C 2.765625 -11.46875 3.425781 -11.925781 4.1875 -12.25 C 4.945312 -12.582031 5.769531 -12.75 6.65625 -12.75 C 7.539062 -12.75 8.359375 -12.582031 9.109375 -12.25 C 9.867188 -11.925781 10.53125 -11.46875 11.09375 -10.875 C 11.65625 -10.289062 12.085938 -9.601562 12.390625 -8.8125 C 12.703125 -8.03125 12.859375 -7.179688 12.859375 -6.265625 C 12.859375 -5.347656 12.703125 -4.492188 12.390625 -3.703125 C 12.085938 -2.921875 11.65625 -2.234375 11.09375 -1.640625 C 10.539062 -1.054688 9.882812 -0.597656 9.125 -0.265625 C 8.375 0.0664062 7.550781 0.234375 6.65625 0.234375 C 5.75 0.234375 4.910156 0.0664062 4.140625 -0.265625 C 3.378906 -0.597656 2.722656 -1.054688 2.171875 -1.640625 C 1.617188 -2.234375 1.1875 -2.921875 0.875 -3.703125 C 0.570312 -4.492188 0.421875 -5.347656 0.421875 -6.265625 Z M 0.421875 -6.265625 "/></g></g></g><g clip-path="url(#cc87518c31)"><g clip-path="url(#133cf66a49)"><g clip-path="url(#43378d0d01)"><path fill="#0a7ea4" d="M 249 713.316406 L 279.488281 737.734375 L 260.660156 761.238281 L 230.171875 736.824219 Z M 249 713.316406 " fill-opacity="1" fill-rule="nonzero"/></g></g></g><g clip-path="url(#e1632fbbd6)"><g clip-path="url(#5852f26543)"><g clip-path="url(#5e26090050)"><path fill="#0a7ea4" d="M 355.789062 49.800781 L 433.730469 109.542969 L 416.191406 132.425781 L 338.25 72.679688 Z M 355.789062 49.800781 " fill-opacity="1" fill-rule="nonzero"/></g></g></g><g mask="url(#1e099ec0dd)"><g transform="matrix(1, 0, 0, 1, 277, -0.000000000000057351)"><g clip-path="url(#aef01a24b5)"><g clip-path="url(#b49f0fb491)"><g clip-path="url(#10b886bf57)"><g clip-path="url(#7b03a5ca96)"><path fill="#763ebd" d="M 36.152344 -47.019531 L 156.5 45.230469 L 120.554688 92.125 L 0.207031 -0.125 Z M 36.152344 -47.019531 " fill-opacity="1" fill-rule="nonzero"/></g></g></g></g></g></g><g mask="url(#25851efb07)"><g transform="matrix(1, 0, 0, 1, 794, -0.000000000000057351)"><g clip-path="url(#9fa65d626a)"><g clip-path="url(#fc6eb8d49e)"><g clip-path="url(#3e0b5be88c)"><g clip-path="url(#a975b868fa)"><path fill="#50bcbd" d="M 195.171875 -204.722656 L 245.617188 -167.742188 L 51.183594 97.5 L 0.734375 60.519531 Z M 195.171875 -204.722656 " fill-opacity="1" fill-rule="nonzero"/></g></g></g></g></g></g><g clip-path="url(#64d36ce7b5)"><g clip-path="url(#5110a46296)"><g clip-path="url(#7a80d529b1)"><path fill="#763ebd" d="M 859.34375 -159.914062 L 891.3125 -135.492188 L 691.628906 125.886719 L 659.660156 101.460938 Z M 859.34375 -159.914062 " fill-opacity="1" fill-rule="nonzero"/></g></g></g><g clip-path="url(#a8b4feb4a7)"><g clip-path="url(#b4473aa967)"><g clip-path="url(#d0e08f7d5a)"><path fill="#fa896b" d="M 788.027344 -159.914062 L 819.996094 -135.492188 L 620.316406 125.886719 L 588.34375 101.460938 Z M 788.027344 -159.914062 " fill-opacity="1" fill-rule="nonzero"/></g></g></g></svg>