<svg width="50" height="47" viewBox="0 0 50 47" fill="none" xmlns="http://www.w3.org/2000/svg">
<path d="M47.1172 37.0198L40.7734 31.0567C40.6439 30.9368 40.4739 30.8632 40.2928 30.8484C40.1117 30.8337 39.9308 30.8788 39.7812 30.9759L31.9687 36.0651C31.8744 36.1262 31.7956 36.2061 31.7378 36.299C31.68 36.3919 31.6446 36.4957 31.6341 36.6029C31.6237 36.7101 31.6385 36.8181 31.6774 36.9194C31.7163 37.0206 31.7784 37.1126 31.8594 37.1887L39.4141 44.2901C39.5139 44.3846 39.6393 44.4517 39.7766 44.4844C39.914 44.517 40.0582 44.5139 40.1938 44.4755C40.3295 44.437 40.4514 44.3646 40.5466 44.2659C40.6418 44.1673 40.7067 44.0462 40.7344 43.9156L41.7422 39.2083L46.7187 38.2609C46.8577 38.235 46.9865 38.174 47.0914 38.0845C47.1964 37.9949 47.2734 37.8803 47.3143 37.7528C47.3553 37.6253 47.3585 37.4898 47.3238 37.3606C47.2891 37.2315 47.2177 37.1137 47.1172 37.0198Z" fill="url(#paint0_linear_1046_186)"/>
<path d="M18.0625 36.0651L10.25 30.9759C10.1004 30.8788 9.91954 30.8337 9.73843 30.8484C9.55732 30.8632 9.38736 30.9368 9.25781 31.0567L2.88281 37.0198C2.78233 37.1137 2.7109 37.2315 2.67618 37.3606C2.64145 37.4898 2.64473 37.6253 2.68566 37.7528C2.72659 37.8803 2.80363 37.9949 2.90855 38.0845C3.01346 38.174 3.14229 38.235 3.28124 38.2609L8.28906 39.2083L9.29687 43.9156C9.3245 44.0462 9.38939 44.1673 9.48461 44.2659C9.57982 44.3646 9.70178 44.437 9.83741 44.4755C9.97305 44.5139 10.1173 44.517 10.2546 44.4844C10.392 44.4517 10.5173 44.3846 10.6172 44.2901L18.1719 37.1887C18.2528 37.1126 18.3149 37.0206 18.3538 36.9194C18.3928 36.8181 18.4075 36.7101 18.3971 36.6029C18.3867 36.4957 18.3513 36.3919 18.2935 36.299C18.2356 36.2061 18.1568 36.1262 18.0625 36.0651Z" fill="url(#paint1_linear_1046_186)"/>
<path d="M46.0938 22.0313C46.0938 20.1806 42.7344 19.1525 42.5234 18.2713C42.3125 17.39 44.8672 15.0621 44.0078 13.4244C43.1484 11.7867 39.6719 12.2347 39.0625 11.5003C38.4531 10.766 39.7031 7.68159 38.1719 6.52862C36.6406 5.37565 33.7188 7.21893 32.8125 6.80768C31.9062 6.39643 31.625 3.13581 29.6875 2.69518C27.75 2.25456 26.0547 5.14065 25 5.14065C23.9453 5.14065 22.1797 2.29862 20.3125 2.69518C18.4453 3.09174 18.0859 6.41112 17.1875 6.80768C16.2891 7.20424 13.3594 5.38299 11.8281 6.52862C10.2969 7.67424 11.5547 10.766 10.9375 11.5003C10.3203 12.2347 6.83594 11.75 5.99219 13.4244C5.14844 15.0988 7.70312 17.3386 7.47656 18.2713C7.25 19.2039 3.90625 20.1733 3.90625 22.0313C3.90625 23.8892 7.26562 24.91 7.47656 25.7913C7.6875 26.6725 5.13281 29.0005 5.99219 30.6382C6.85156 32.2758 10.3281 31.8278 10.9531 32.5622C11.5781 33.2966 10.3125 36.381 11.8438 37.5339C13.375 38.6869 16.2969 36.8436 17.2031 37.2549C18.1094 37.6661 18.3906 40.9267 20.3281 41.3674C22.2656 41.808 23.9453 38.9219 25 38.9219C25.8906 38.9219 27.6719 41.4041 29.3125 41.4041C29.4412 41.4061 29.5697 41.3937 29.6953 41.3674C31.6016 40.9561 31.9219 37.6514 32.8203 37.2549C33.7187 36.8583 36.6484 38.6796 38.1797 37.5339C39.7109 36.3883 38.4531 33.2966 39.0703 32.5622C39.6875 31.8278 43.1875 32.2832 44.0312 30.6382C44.875 28.9932 42.3203 26.7239 42.5469 25.7913C42.7734 24.8586 46.0938 23.8892 46.0938 22.0313Z" fill="url(#paint2_linear_1046_186)"/>
<path d="M46.0938 22.0313C46.0938 20.1806 42.7344 19.1525 42.5234 18.2713C42.3125 17.39 44.8672 15.0621 44.0078 13.4244C43.1484 11.7867 39.6719 12.2347 39.0625 11.5003C38.4531 10.766 39.7031 7.68159 38.1719 6.52862C36.6406 5.37565 33.7187 7.21893 32.8125 6.80768C31.9063 6.39643 31.625 3.13581 29.6875 2.69518C27.75 2.25456 26.0547 5.14065 25 5.14065C23.9453 5.14065 22.1797 2.29862 20.3125 2.69518C18.4453 3.09174 18.0859 6.41112 17.1875 6.80768C16.2891 7.20424 13.3594 5.38299 11.8281 6.52862C10.2969 7.67424 11.5547 10.766 10.9375 11.5003C10.3203 12.2347 6.83594 11.75 5.99219 13.4244C5.14844 15.0988 7.70312 17.3386 7.47656 18.2713C7.25 19.2039 3.90625 20.1733 3.90625 22.0313C3.90625 23.8892 7.26562 24.91 7.47656 25.7913C7.6875 26.6725 5.13281 29.0005 5.99219 30.6382C6.85156 32.2758 10.3281 31.8278 10.9531 32.5622C11.5781 33.2966 10.3125 36.381 11.8437 37.5339C13.375 38.6869 16.2969 36.8436 17.2031 37.2549C18.1094 37.6661 18.3906 40.9267 20.3281 41.3674C22.2656 41.808 23.9453 38.9219 25 38.9219C25.8906 38.9219 27.6719 41.4041 29.3125 41.4041C29.4412 41.4061 29.5697 41.3938 29.6953 41.3674C31.6016 40.9561 31.9219 37.6514 32.8203 37.2549C33.7187 36.8583 36.6484 38.6796 38.1797 37.5339C39.7109 36.3883 38.4531 33.2966 39.0703 32.5622C39.6875 31.8278 43.1875 32.2832 44.0313 30.6382C44.875 28.9932 42.3203 26.7239 42.5469 25.7913C42.7734 24.8586 46.0938 23.8892 46.0938 22.0313Z" fill="url(#paint3_linear_1046_186)"/>
<path d="M25 35.9844C33.198 35.9844 39.8438 29.7373 39.8438 22.0312C39.8438 14.3252 33.198 8.07812 25 8.07812C16.802 8.07812 10.1562 14.3252 10.1562 22.0312C10.1562 29.7373 16.802 35.9844 25 35.9844Z" fill="url(#paint4_linear_1046_186)"/>
<path d="M32.9219 18.9248L27.9297 18.2419L25.7031 13.9898C25.6391 13.8657 25.5393 13.761 25.4149 13.6877C25.2905 13.6144 25.1468 13.5756 25 13.5756C24.8532 13.5756 24.7094 13.6144 24.5851 13.6877C24.4607 13.761 24.3608 13.8657 24.2969 13.9898L22.0703 18.2419L17.0781 18.9248C16.9344 18.9445 16.7993 19.0014 16.6881 19.0892C16.5769 19.1769 16.4939 19.2921 16.4484 19.4218C16.403 19.5515 16.3969 19.6905 16.4309 19.8232C16.4648 19.956 16.5374 20.0772 16.6406 20.1733L20.2578 23.5L19.3984 28.1706C19.3718 28.3069 19.3867 28.4475 19.4414 28.5761C19.4962 28.7048 19.5885 28.8163 19.7078 28.8977C19.8271 28.9791 19.9684 29.0271 20.1155 29.0362C20.2626 29.0453 20.4095 29.0151 20.5391 28.949L25 26.7459L29.4609 28.949C29.5905 29.0151 29.7374 29.0453 29.8844 29.0362C30.0315 29.0271 30.1729 28.9791 30.2922 28.8977C30.4115 28.8163 30.5038 28.7048 30.5586 28.5761C30.6133 28.4475 30.6282 28.3069 30.6015 28.1706L29.7422 23.5L33.3594 20.188C33.4672 20.0925 33.5439 19.9702 33.5806 19.8353C33.6173 19.7004 33.6124 19.5584 33.5666 19.426C33.5207 19.2936 33.4357 19.1762 33.3216 19.0875C33.2075 18.9987 33.0688 18.9423 32.9219 18.9248Z" fill="url(#paint5_linear_1046_186)"/>
<defs>
<linearGradient id="paint0_linear_1046_186" x1="35.6953" y1="33.2305" x2="42.7815" y2="41.4592" gradientUnits="userSpaceOnUse">
<stop stop-color="#42BFFF"/>
<stop offset="1" stop-color="#1174AC"/>
</linearGradient>
<linearGradient id="paint1_linear_1046_186" x1="14.5" y1="32.7237" x2="7.79297" y2="41.0944" gradientUnits="userSpaceOnUse">
<stop stop-color="#42BFFF"/>
<stop offset="1" stop-color="#1174AC"/>
</linearGradient>
<linearGradient id="paint2_linear_1046_186" x1="25" y1="2.65846" x2="25" y2="41.4041" gradientUnits="userSpaceOnUse">
<stop stop-color="#CE7F20"/>
<stop offset="1" stop-color="#B2500D"/>
</linearGradient>
<linearGradient id="paint3_linear_1046_186" x1="25" y1="2.65846" x2="25" y2="41.4041" gradientUnits="userSpaceOnUse">
<stop stop-color="#EB9C3D"/>
<stop offset="1" stop-color="#B2700D"/>
</linearGradient>
<linearGradient id="paint4_linear_1046_186" x1="25" y1="8.07812" x2="25" y2="35.9844" gradientUnits="userSpaceOnUse">
<stop stop-color="#F1AB0E"/>
<stop offset="0.570908" stop-color="#F1AF53"/>
<stop offset="1" stop-color="#EF8721"/>
</linearGradient>
<linearGradient id="paint5_linear_1046_186" x1="25.0071" y1="13.5756" x2="25.0071" y2="29.0378" gradientUnits="userSpaceOnUse">
<stop stop-color="#FFC700"/>
<stop offset="0.6" stop-color="#8D3900" stop-opacity="0"/>
<stop offset="0.961827" stop-color="#C07C08" stop-opacity="0.446582"/>
</linearGradient>
</defs>
</svg>
