<svg width="55" height="44" viewBox="0 0 55 44" fill="none" xmlns="http://www.w3.org/2000/svg">
<path d="M33.7555 39.4154C43.9954 37.5674 51.9196 31.0406 53.6803 22.7904C56.8096 8.13354 36.0396 9.8325 31.886 6.00761C25.8359 0.439283 20.1868 -0.0143659 15.3512 2.35395C9.30327 5.31602 14.2182 9.38107 6.22154 14.3379C1.01658 17.5646 0.293732 22.0388 1.51283 26.1995C3.24631 32.108 8.7617 36.8291 15.963 38.7949C20.4655 40.0224 26.4862 40.7274 33.7555 39.4154Z" fill="#E8F3FE" stroke="black" stroke-opacity="0.26" stroke-width="0.316" stroke-miterlimit="10"/>
<path d="M12.4712 35.6113V38.5867C12.4712 41.5755 19.6544 43.9994 28.5121 43.9994C37.3698 43.9994 44.553 41.5755 44.553 38.5867V35.6113H12.4712Z" fill="#FFBE55"/>
<path d="M28.5121 41.0245C37.3712 41.0245 44.553 38.6012 44.553 35.6119C44.553 32.6226 37.3712 30.1992 28.5121 30.1992C19.6529 30.1992 12.4712 32.6226 12.4712 35.6119C12.4712 38.6012 19.6529 41.0245 28.5121 41.0245Z" fill="#FFBE55"/>
<path d="M28.5122 31.1387C20.9575 31.1387 14.8325 33.149 14.8325 35.6307C14.8325 38.1102 20.9575 40.1227 28.5122 40.1227C36.067 40.1227 42.192 38.1124 42.192 35.6307C42.192 33.149 36.067 31.1387 28.5122 31.1387ZM28.5122 31.9904C34.5964 31.9904 39.5272 33.6204 39.5272 35.6307C39.5272 37.641 34.5964 39.2688 28.5122 39.2688C22.4281 39.2688 17.4973 37.6388 17.4973 35.6307C17.4996 33.6204 22.4304 31.9904 28.5122 31.9904Z" fill="white"/>
<path d="M28.5126 33.3535C24.4044 33.3535 21.0757 34.372 21.0757 35.6284C21.0757 36.8849 24.4067 37.9034 28.5126 37.9034C32.6209 37.9034 35.9496 36.8849 35.9496 35.6284C35.9518 34.372 32.6209 33.3535 28.5126 33.3535ZM28.5126 34.0318C31.3768 34.0318 33.6972 34.7456 33.6972 35.6262C33.6972 36.5068 31.3768 37.2207 28.5126 37.2207C25.6484 37.2207 23.3281 36.5068 23.3281 35.6262C23.3281 34.7456 25.6484 34.0318 28.5126 34.0318Z" fill="white"/>
<path d="M38.3035 2.48633H16.6929V3.04894H38.3035V2.48633Z" fill="#FFBE55"/>
<path d="M47.379 22.5529V22.5332" stroke="#679BB2" stroke-width="0.316" stroke-miterlimit="10"/>
<path d="M29.4894 7.69202C29.1903 7.30508 29.1676 6.52231 29.1676 6.52231C29.1676 5.57943 28.3881 4.81445 27.4273 4.81445C26.4665 4.81445 25.687 5.57943 25.687 6.52231C25.687 6.52231 25.6644 7.3073 25.3653 7.69202C25.0662 8.07895 24.3909 10.0381 27.4273 10.0537C30.4637 10.0381 29.7885 8.07673 29.4894 7.69202Z" fill="black"/>
<path d="M29.0654 6.39708C29.0654 7.25101 28.3244 7.99375 27.4112 7.99375C26.498 7.99375 25.757 7.24879 25.757 6.39708C25.757 5.54538 26.498 4.85156 27.4112 4.85156C28.3244 4.85156 29.0654 5.54316 29.0654 6.39708Z" fill="black"/>
<path d="M25.975 7.72856C26.1792 7.67454 26.2888 7.42694 26.2197 7.17555C26.1506 6.92416 25.9291 6.76416 25.7249 6.81819C25.5207 6.87222 25.4111 7.11981 25.4802 7.3712C25.5493 7.6226 25.7708 7.78259 25.975 7.72856Z" fill="white" stroke="black" stroke-width="0.316" stroke-miterlimit="10" stroke-linecap="round" stroke-linejoin="round"/>
<path d="M29.2847 7.37132C29.3537 7.11993 29.2442 6.87234 29.0399 6.81831C28.8357 6.76428 28.6142 6.92428 28.5452 7.17567C28.4761 7.42706 28.5856 7.67466 28.7899 7.72869C28.9941 7.78271 29.2156 7.62271 29.2847 7.37132Z" fill="white" stroke="black" stroke-width="0.316" stroke-miterlimit="10" stroke-linecap="round" stroke-linejoin="round"/>
<path d="M29.097 7.09961C29.097 7.09961 28.8795 7.11518 28.8024 7.35534C28.8024 7.35534 29.0132 7.32866 29.0132 7.5199" stroke="black" stroke-width="0.316" stroke-miterlimit="10" stroke-linecap="round" stroke-linejoin="round"/>
<path d="M28.2111 8.16602L26.6951 8.30611L26.5388 10.6811L28.6257 10.6077L28.2111 8.16602Z" fill="white" stroke="black" stroke-width="0.316" stroke-miterlimit="10" stroke-linecap="round" stroke-linejoin="round"/>
<path d="M32.8564 2.86362L32.7477 2.34325C32.6842 2.16313 32.7635 1.96299 32.9357 1.87404C33.1419 1.7673 33.3957 1.85847 33.4818 2.06973L33.4796 2.07418C33.4796 2.07418 33.5113 1.74284 33.9237 1.78731C33.9237 1.78731 34.1594 1.77397 34.2727 2.07863C34.2727 2.07863 34.3905 1.77397 34.6987 1.84291C35.0068 1.90962 35.0567 2.13867 35.0567 2.13867C35.0567 2.13867 35.2946 1.84735 35.5801 2.18092C35.5801 2.18092 35.7388 2.33881 35.6866 2.8436C35.6866 2.8436 35.7818 3.93325 35.8702 4.30685C35.9586 4.68044 35.7274 5.62999 35.7274 5.62999C35.7501 5.92353 35.5824 6.2015 35.3082 6.32381L34.744 6.57509C34.3837 6.73521 33.9577 6.57954 33.7945 6.22596L33.5657 5.73451C33.5657 5.73451 33.1261 4.53367 32.6955 4.04444C32.4576 3.77314 32.4032 3.51518 32.401 3.33728C32.401 3.20608 32.4689 3.08599 32.5845 3.01928L32.8564 2.86362Z" fill="white" stroke="black" stroke-width="0.316" stroke-miterlimit="10" stroke-linecap="round" stroke-linejoin="round"/>
<path d="M34.9728 2.91778C34.9162 3.07122 34.7621 3.17796 34.5899 3.16907C34.3814 3.15795 34.2228 2.98894 34.2273 2.78436L34.2432 2.08164C34.2432 2.06608 34.2568 2.05273 34.2749 2.05273C34.2908 2.05273 34.3044 2.06608 34.3044 2.08387L34.2885 2.78658C34.284 2.96003 34.4199 3.10235 34.5944 3.11125C34.7621 3.12014 34.9094 3.00006 34.932 2.83773L35.0295 2.13724C35.0318 2.12167 35.0476 2.11055 35.0635 2.11278C35.0793 2.115 35.0907 2.13057 35.0884 2.14613L34.991 2.84662C34.9887 2.87108 34.9819 2.89554 34.9728 2.91778Z" fill="black"/>
<path d="M34.2547 2.91219C34.2502 2.92331 34.2457 2.93443 34.2411 2.94333C34.1754 3.08342 34.0304 3.17015 33.8718 3.16126C33.8491 3.15903 33.8265 3.15681 33.8061 3.15236C33.7902 3.14791 33.7789 3.13235 33.7834 3.11678C33.7879 3.10121 33.8038 3.09009 33.8197 3.09454C33.8355 3.09899 33.8537 3.10121 33.8741 3.10121C34.0078 3.10789 34.1278 3.03672 34.1845 2.91664C34.1981 2.88773 34.2072 2.85882 34.2117 2.82547L34.2411 2.07383C34.2411 2.05826 34.257 2.04492 34.2729 2.04492C34.2887 2.04492 34.3023 2.05826 34.3023 2.07605L34.2729 2.82991C34.2706 2.86105 34.2638 2.88773 34.2547 2.91219Z" fill="black"/>
<path d="M35.6804 3.00946C35.6192 3.17847 35.4402 3.28521 35.2566 3.2563C35.0504 3.22294 34.9099 3.03837 34.9371 2.83601L35.03 2.13997C35.0323 2.1244 35.0482 2.11328 35.064 2.11328C35.0799 2.11551 35.0912 2.13107 35.0912 2.14664L34.9983 2.84268C34.9757 3.01391 35.0935 3.16957 35.268 3.19626C35.4334 3.22294 35.5943 3.11843 35.6328 2.95832C35.6373 2.94275 35.6532 2.93163 35.6691 2.93608C35.6849 2.94052 35.6962 2.95609 35.6917 2.97166C35.6872 2.985 35.6849 2.99612 35.6804 3.00946Z" fill="black"/>
<path d="M33.752 3.27973C33.6999 3.42206 33.6093 3.57105 33.4575 3.71115C33.4461 3.72227 33.4257 3.72227 33.4144 3.70892C33.4031 3.6978 33.4031 3.67779 33.4167 3.66667C33.8993 3.22636 33.7271 2.67932 33.7067 2.61927C33.6931 2.57702 33.6478 2.55478 33.6047 2.5659L32.8683 2.88835C32.8524 2.89502 32.8343 2.88835 32.8275 2.87278C32.8207 2.85722 32.8275 2.83943 32.8434 2.83276L33.5844 2.50809C33.6614 2.48585 33.7384 2.52588 33.7634 2.59926C33.7792 2.64596 33.8721 2.94394 33.752 3.27973Z" fill="black"/>
<path d="M34.6174 4.01776C34.6152 4.02443 34.6084 4.0311 34.6016 4.03555C34.5857 4.04222 34.5676 4.03555 34.5608 4.02221C34.2843 3.45515 33.6295 3.50407 33.6249 3.50629C33.6091 3.50852 33.5932 3.49517 33.5932 3.47961C33.5909 3.46404 33.6045 3.44847 33.6204 3.44847C33.6272 3.44847 34.3229 3.3951 34.6174 3.99775C34.6197 4.00442 34.6197 4.01109 34.6174 4.01776Z" fill="black"/>
<path d="M33.4825 2.07617L33.4916 2.58542" stroke="black" stroke-width="0.316" stroke-miterlimit="10" stroke-linecap="round" stroke-linejoin="round"/>
<path d="M26.0111 6.29022C26.0111 6.29022 25.9363 8.68967 27.3662 8.68967C28.9184 8.68967 28.8209 6.29022 28.8209 6.29022C28.8209 6.29022 28.8119 5.18945 27.4047 5.18945C26.1131 5.18945 26.0111 6.29022 26.0111 6.29022Z" fill="white" stroke="black" stroke-width="0.316" stroke-miterlimit="10" stroke-linecap="round" stroke-linejoin="round"/>
<path d="M28.6393 5.73347C28.6393 5.73347 27.9572 5.44438 27.5244 5.88914C27.1075 6.31388 26.6452 6.64299 26.013 6.39393C26.013 6.39393 25.8408 5.46662 27.0078 5.17086C28.1748 4.87065 28.6393 5.73347 28.6393 5.73347Z" fill="black"/>
<path d="M32.0978 28.1055C32.0933 28.041 32.0842 27.9787 32.0729 27.9187C32.0751 27.8564 32.0751 27.7942 32.0706 27.7297L31.6922 22.5527L25.1979 22.7195L24.8217 27.7297C24.8172 27.7919 24.8172 27.852 24.8195 27.912C24.8081 27.9721 24.7991 28.0321 24.7945 28.0944L24.3708 33.7583L27.6089 33.9918L28.0326 28.3279C28.0371 28.2656 28.0371 28.2056 28.0349 28.1455C28.0462 28.0855 28.0553 28.0254 28.0598 27.9632L28.3974 23.4623L28.7283 27.9654C28.7328 28.0299 28.7419 28.0922 28.7532 28.1522C28.7509 28.2145 28.7509 28.2767 28.7555 28.3412L29.1837 34.192L32.5283 33.9562L32.0978 28.1055Z" fill="white" stroke="black" stroke-width="0.316" stroke-miterlimit="10" stroke-linecap="round" stroke-linejoin="round"/>
<path d="M33.0564 25.0782C32.1478 17.6086 30.9468 16.3633 30.9468 16.3633L25.1142 16.4344C25.1142 16.4344 23.7523 17.9866 23.7228 25.2206C23.7228 25.3451 23.8225 25.4474 23.9494 25.4518L32.8208 25.3362C32.9635 25.3362 33.0745 25.2161 33.0564 25.0782Z" fill="#0E538C" stroke="#0E538C" stroke-width="0.316" stroke-miterlimit="10" stroke-linecap="round" stroke-linejoin="round"/>
<path d="M29.9039 17.6436C29.9039 17.6436 27.298 17.9772 25.2858 17.7837L26.4619 9.54688C27.3026 10.1807 28.5126 9.56911 28.5126 9.56911L29.9039 17.6436Z" fill="black"/>
<path d="M33.7716 35.0492L32.5616 33.2391C32.2738 32.8077 31.7753 32.5475 31.2519 32.5764C31.2292 32.5786 31.2043 32.5786 31.1816 32.5809L30.3931 32.6253C29.8198 32.6565 29.3258 33.0389 29.1649 33.5815C29.0018 34.1286 28.8295 34.7935 28.7457 35.1916C28.7457 35.1916 29.8243 36.001 31.2587 35.7764C32.693 35.5518 33.5813 35.6052 33.7716 35.0492Z" fill="#FF7F6E"/>
<path d="M33.7715 35.0508C33.7715 35.0508 33.5472 35.3999 31.4126 35.4733C30.044 35.52 29.1852 35.3332 28.7456 35.1909L28.6595 35.7846C28.6164 36.0826 28.8317 36.3561 29.1353 36.3895C30.0009 36.4851 31.7548 36.6119 33.4973 36.3272C33.7262 36.2894 33.9052 36.1137 33.9415 35.8891C33.98 35.6579 33.9709 35.3488 33.7715 35.0508Z" fill="black"/>
<path d="M30.2799 33.6447C30.2799 33.6447 31.0979 33.2488 31.993 33.6447" stroke="black" stroke-width="0.316" stroke-miterlimit="10" stroke-linecap="round" stroke-linejoin="round"/>
<path d="M30.2799 34.4357C30.2799 34.4357 31.0979 34.0399 31.993 34.4357" stroke="black" stroke-width="0.316" stroke-miterlimit="10" stroke-linecap="round" stroke-linejoin="round"/>
<path d="M27.6171 33.5815C27.4562 33.0389 26.9645 32.6565 26.3889 32.6253L25.6004 32.5809C25.5754 32.5786 25.5528 32.5764 25.5301 32.5764C25.0067 32.5475 24.5082 32.8077 24.2204 33.2391L23.0103 35.0492C23.2007 35.6052 24.089 35.5518 25.5233 35.7764C26.9577 36.001 28.0363 35.1916 28.0363 35.1916C27.9524 34.7935 27.7802 34.1286 27.6171 33.5815Z" fill="#FF7F6E"/>
<path d="M23.0104 35.0508C23.0104 35.0508 23.2348 35.3999 25.3693 35.4733C26.738 35.52 27.5968 35.3332 28.0364 35.1909L28.1225 35.7846C28.1655 36.0826 27.9503 36.3561 27.6466 36.3895C26.781 36.4851 25.0272 36.6119 23.2846 36.3272C23.058 36.2894 22.8767 36.116 22.8405 35.8936C22.802 35.6623 22.811 35.351 23.0104 35.0508Z" fill="black"/>
<path d="M26.5022 33.6447C26.5022 33.6447 25.6842 33.2488 24.7892 33.6447" stroke="black" stroke-width="0.316" stroke-miterlimit="10" stroke-linecap="round" stroke-linejoin="round"/>
<path d="M26.5022 34.4357C26.5022 34.4357 25.6842 34.0399 24.7892 34.4357" stroke="black" stroke-width="0.316" stroke-miterlimit="10" stroke-linecap="round" stroke-linejoin="round"/>
<path d="M28.4443 10.0665L28.3967 9.42383C28.3967 9.42383 27.5538 10.1999 26.6021 9.48609L26.5114 10.0821C26.5137 10.0821 27.4654 10.6358 28.4443 10.0665Z" fill="black"/>
<path d="M31.0958 9.56943C30.2143 9.21362 28.3132 9.11133 28.3132 9.11133L29.1221 19.483L32.6752 19.3273C32.8111 19.3229 32.9131 19.2028 32.8927 19.0694C32.6729 17.5884 31.6895 9.80959 31.0958 9.56943Z" fill="#0B4870"/>
<path d="M36.2893 7.38672L30.28 9.43259L30.4771 12.1345C31.2045 13.064 33.5951 12.05 35.5892 10.9714C36.3324 10.5712 36.7312 9.74837 36.5771 8.93002L36.2893 7.38672Z" fill="#0B4870"/>
<path d="M36.527 8.89756L35.9763 5.55078L33.4543 6.04223L34.3267 9.32452C34.4083 9.7248 34.6983 10.0295 35.0654 10.154C35.2467 10.214 35.4438 10.2296 35.6455 10.1918C36.2528 10.0739 36.6471 9.49353 36.527 8.89756Z" fill="#0B4870"/>
<path d="M22.1429 2.86557L22.2516 2.34521C22.3151 2.16508 22.2358 1.96494 22.0636 1.87599C21.8574 1.76925 21.6036 1.86042 21.5175 2.07168L21.5197 2.07613C21.5197 2.07613 21.488 1.74479 21.0756 1.78926C21.0756 1.78926 20.8399 1.77592 20.7266 2.08058C20.7266 2.08058 20.6088 1.77592 20.3006 1.84486C19.9925 1.91157 19.9426 2.14062 19.9426 2.14062C19.9426 2.14062 19.7047 1.84931 19.4192 2.18287C19.4192 2.18287 19.2605 2.34076 19.3127 2.84556C19.3127 2.84556 19.2175 3.9352 19.1291 4.3088C19.0407 4.68239 19.2719 5.63194 19.2719 5.63194C19.2492 5.92548 19.4169 6.20345 19.6911 6.32576L20.2553 6.57705C20.6156 6.73716 21.0416 6.58149 21.2048 6.22791L21.4336 5.73646C21.4336 5.73646 21.8732 4.53562 22.3038 4.04639C22.5417 3.77509 22.5961 3.51714 22.5983 3.33923C22.5983 3.20803 22.5304 3.08795 22.4148 3.02123L22.1429 2.86557Z" fill="white" stroke="black" stroke-width="0.316" stroke-miterlimit="10" stroke-linecap="round" stroke-linejoin="round"/>
<path d="M20.0262 2.91778C20.0828 3.07122 20.2369 3.17796 20.4091 3.16907C20.6176 3.15795 20.7785 2.98894 20.7717 2.78436L20.7558 2.08164C20.7558 2.06608 20.7422 2.05273 20.7241 2.05273C20.7083 2.05273 20.6947 2.06608 20.6947 2.08387L20.7105 2.78658C20.7151 2.96003 20.5791 3.10236 20.4046 3.11125C20.2369 3.12015 20.0896 3.00006 20.067 2.83773L19.9695 2.13724C19.9673 2.12167 19.9514 2.11055 19.9356 2.11278C19.9197 2.115 19.9084 2.13057 19.9106 2.14613L20.0081 2.84662C20.0103 2.87108 20.0171 2.89554 20.0262 2.91778Z" fill="black"/>
<path d="M20.7445 2.9161C20.7491 2.92722 20.7536 2.93834 20.7581 2.94723C20.8239 3.08733 20.9689 3.17406 21.1275 3.16516C21.1502 3.16294 21.1728 3.16071 21.1932 3.15627C21.2091 3.15182 21.2204 3.13625 21.2159 3.12069C21.2113 3.10512 21.1955 3.094 21.1796 3.09845C21.1638 3.1029 21.1456 3.10512 21.1252 3.10512C20.9915 3.11179 20.8714 3.04063 20.8148 2.92055C20.8012 2.89164 20.7921 2.86273 20.7876 2.82937L20.7581 2.07774C20.7581 2.06217 20.7423 2.04883 20.7264 2.04883C20.7106 2.04883 20.697 2.06217 20.697 2.07996L20.7264 2.83382C20.7287 2.86495 20.7355 2.89164 20.7445 2.9161Z" fill="black"/>
<path d="M19.3192 3.0036C19.3803 3.17261 19.5594 3.27935 19.7429 3.25044C19.9491 3.21708 20.0896 3.03251 20.0624 2.83015L19.9695 2.13411C19.9672 2.11854 19.9514 2.10742 19.9355 2.10742C19.9196 2.10965 19.9083 2.12521 19.9083 2.14078L20.0012 2.83682C20.0239 3.00805 19.9061 3.16371 19.7316 3.1904C19.5662 3.21708 19.4053 3.11257 19.3667 2.95246C19.3622 2.93689 19.3464 2.92577 19.3305 2.93022C19.3146 2.93467 19.3033 2.95023 19.3078 2.9658C19.3124 2.97914 19.3146 2.99248 19.3192 3.0036Z" fill="black"/>
<path d="M21.2477 3.27973C21.2999 3.42206 21.3905 3.57105 21.5423 3.71115C21.5537 3.72227 21.574 3.72227 21.5854 3.70892C21.5967 3.6978 21.5967 3.67779 21.5831 3.66667C21.1005 3.22636 21.2727 2.67932 21.2931 2.61927C21.3067 2.57702 21.352 2.55478 21.395 2.5659L22.1315 2.88835C22.1473 2.89502 22.1655 2.88835 22.1723 2.87278C22.1791 2.85722 22.1723 2.83943 22.1564 2.83276L21.4154 2.50809C21.3384 2.48585 21.2613 2.52588 21.2364 2.59926C21.2206 2.64596 21.1277 2.94394 21.2477 3.27973Z" fill="black"/>
<path d="M20.3823 4.02167C20.3845 4.02834 20.3913 4.03501 20.3981 4.03946C20.414 4.04613 20.4321 4.03946 20.4389 4.02611C20.7154 3.45905 21.3702 3.50797 21.3748 3.5102C21.3906 3.51242 21.4065 3.49908 21.4065 3.48351C21.4087 3.46795 21.3951 3.45238 21.3793 3.45238C21.3725 3.45238 20.6768 3.39901 20.3823 4.00165C20.38 4.0061 20.38 4.01277 20.3823 4.02167Z" fill="black"/>
<path d="M21.517 2.08008L21.5079 2.58932" stroke="black" stroke-width="0.316" stroke-miterlimit="10" stroke-linecap="round" stroke-linejoin="round"/>
<path d="M23.9035 9.57333C24.7849 9.21753 26.6861 9.11523 26.6861 9.11523L26.2555 19.4825L22.7433 19.3379C22.6073 19.3335 22.5053 19.2134 22.5257 19.08C22.7455 17.5989 23.3098 9.8135 23.9035 9.57333Z" fill="#0B4870"/>
<path d="M18.7099 7.39062L24.7193 9.4365L24.5222 12.1384C23.7948 13.0679 21.4042 12.0539 19.4101 10.9753C18.6669 10.5751 18.2681 9.75227 18.4221 8.93392L18.7099 7.39062Z" fill="#0B4870"/>
<path d="M18.4719 8.89951L19.0225 5.55273L21.5446 6.04419L20.6722 9.32648C20.5906 9.72676 20.3006 10.0314 19.9335 10.1559C19.7522 10.216 19.5551 10.2316 19.3534 10.1937C18.7461 10.0759 18.3518 9.49548 18.4719 8.89951Z" fill="#0B4870"/>
<path d="M26.6473 7.60116C26.9489 7.60116 27.1934 7.36121 27.1934 7.06523C27.1934 6.76924 26.9489 6.5293 26.6473 6.5293C26.3457 6.5293 26.1012 6.76924 26.1012 7.06523C26.1012 7.36121 26.3457 7.60116 26.6473 7.60116Z" stroke="black" stroke-width="0.316" stroke-miterlimit="10" stroke-linecap="round" stroke-linejoin="round"/>
<path d="M28.1292 7.60116C28.4308 7.60116 28.6753 7.36121 28.6753 7.06523C28.6753 6.76924 28.4308 6.5293 28.1292 6.5293C27.8276 6.5293 27.5831 6.76924 27.5831 7.06523C27.5831 7.36121 27.8276 7.60116 28.1292 7.60116Z" stroke="black" stroke-width="0.316" stroke-miterlimit="10" stroke-linecap="round" stroke-linejoin="round"/>
<path d="M27.1935 7.06403C27.1935 7.06403 27.3883 6.95951 27.5832 7.06403" stroke="black" stroke-width="0.316" stroke-miterlimit="10" stroke-linecap="round" stroke-linejoin="round"/>
<path d="M25.7141 7.09961C25.7141 7.09961 25.9316 7.11518 26.0086 7.35534C26.0086 7.35534 25.7979 7.32866 25.7979 7.5199" stroke="black" stroke-width="0.316" stroke-miterlimit="10" stroke-linecap="round" stroke-linejoin="round"/>
<path d="M14.4288 2.76597L17.0891 4.45381V1.07812L14.4288 2.76597Z" fill="#FFBE55"/>
</svg>
