<svg width="72" height="75" viewBox="0 0 72 75" fill="none" xmlns="http://www.w3.org/2000/svg">
<path opacity="0.11" d="M39.0072 74.5412C55.1234 74.5412 68.1881 72.717 68.1881 70.4668C68.1881 68.2165 55.1234 66.3923 39.0072 66.3923C22.891 66.3923 9.82626 68.2165 9.82626 70.4668C9.82626 72.717 22.891 74.5412 39.0072 74.5412Z" fill="#2A94F4"/>
<path opacity="0.11" d="M70.0525 47.5457C70.401 56.3249 62.0211 76.1337 37.5525 74.9491C14.4971 73.833 -8.31727 55.0098 4.60987 25.3023C17.1021 -3.40563 39.5793 -1.02167 47.5028 1.25187C56.2637 3.76569 81.2921 13.9492 66.9739 30.898C43.9997 58.093 69.342 29.6461 70.0525 47.5457Z" fill="#2A94F4"/>
<path d="M27.8041 19.6373L22.6978 14.6012L13.7677 24.1261L18.8735 29.1618C20.8919 25.1713 24.0044 21.8572 27.8041 19.6373ZM16.3388 39.8526C16.3388 37.5571 16.6648 35.34 17.269 33.2455H10.1862V46.4597H17.269C16.6648 44.3652 16.3388 42.1481 16.3388 39.8526ZM39.0072 16.603C41.2453 16.603 43.4069 16.9373 45.4491 17.557V10.2927H32.5653V17.557C34.6074 16.9373 36.7691 16.603 39.0072 16.603ZM59.1409 29.1618L64.2467 24.1261L55.3165 14.6012L50.2102 19.6373C54.01 21.8572 57.1225 25.1713 59.1409 29.1618ZM60.7453 33.2455C61.3496 35.34 61.6755 37.5571 61.6755 39.8526C61.6755 42.1481 61.3496 44.3652 60.7453 46.4597H67.8281V33.2455H60.7453ZM50.2102 60.0679L55.3165 65.104L64.2467 55.5791L59.1409 50.5435C57.1225 54.5339 54.01 57.848 50.2102 60.0679ZM18.8735 50.5434L13.7677 55.5791L22.6979 65.104L27.8042 60.0679C24.0044 57.848 20.8919 54.5339 18.8735 50.5434ZM39.0072 63.1022C36.7691 63.1022 34.6074 62.7679 32.5653 62.1481V69.4125H45.4491V62.1481C43.4069 62.7679 41.2453 63.1022 39.0072 63.1022Z" fill="#FFBE55"/>
<path d="M63.6176 39.2692C63.3202 25.3309 52.2186 14.1235 38.5575 14.1235C35.6808 14.1235 32.9202 14.6269 30.3468 15.5415C28.4756 16.2065 26.7097 17.0983 25.0705 18.1756C23.3033 19.3373 21.6843 20.7153 20.2561 22.2806C18.7022 23.9837 17.3678 25.9 16.3077 27.9876C14.5064 31.5346 13.4832 35.5638 13.4832 39.8407C13.4832 40.6499 13.5228 41.4495 13.5939 42.2396C14.5776 53.1417 22.1935 62.0717 32.2668 64.741C34.2771 65.2737 36.3848 65.5578 38.5575 65.5578C52.4055 65.5578 63.6317 54.0439 63.6317 39.8407C63.6317 39.6491 63.6217 39.4599 63.6176 39.2692ZM38.5575 56.5849C37.1391 56.5849 35.7632 56.3988 34.4512 56.0501C27.7674 54.2742 22.7558 48.2626 22.2789 40.9762C22.2543 40.6 22.2318 40.2232 22.2318 39.8407C22.2318 36.9937 22.93 34.3165 24.1523 31.9699C24.9177 30.5008 25.8951 29.1677 27.0343 28.0006C27.8395 27.1756 28.7308 26.4407 29.6878 25.8006C30.8466 25.0255 32.1036 24.3921 33.4431 23.9392C35.0932 23.3804 36.8198 23.0959 38.5575 23.0963C47.387 23.0963 54.5747 30.2865 54.869 39.2691C54.8753 39.4592 54.8831 39.649 54.8831 39.8406C54.883 49.0883 47.5737 56.5849 38.5575 56.5849Z" fill="#FFBE55"/>
<path fill-rule="evenodd" clip-rule="evenodd" d="M26.4552 51.5723C26.4552 51.5723 25.617 52.2141 25.1882 52.5422C25.1161 52.5974 25.0292 52.6283 24.9393 52.6308C24.8494 52.6333 24.7609 52.6073 24.686 52.5562C24.6013 52.4985 24.529 52.4236 24.4736 52.3361C24.4182 52.2487 24.3808 52.1505 24.3637 52.0477C24.3466 51.9449 24.3502 51.8395 24.3743 51.7382C24.3984 51.6369 24.4424 51.5416 24.5037 51.4584L25.2479 50.4475L26.4552 51.5723Z" fill="#FCD2B1"/>
<path fill-rule="evenodd" clip-rule="evenodd" d="M41.2311 46.0913C41.8561 46.5628 42.9771 47.0505 43.3848 47.586C46.0034 51.0259 43.2394 53.6685 39.4678 51.0268C33.4061 46.7807 34.0553 45.1934 26.4023 52.1066L24.6685 50.7146C30.2891 41.133 32.4753 39.4855 41.2311 46.0913Z" fill="#0E538C"/>
<path fill-rule="evenodd" clip-rule="evenodd" d="M34.1335 62.2572L33.6382 64.1387C33.6116 64.2401 33.55 64.3282 33.4649 64.3866C33.3798 64.445 33.2769 64.4699 33.1753 64.4565C33.0371 64.4384 32.9115 64.3646 32.8262 64.2516C32.741 64.1385 32.703 63.9953 32.7206 63.8535L32.994 61.6618L34.1335 62.2572Z" fill="#FCD2B1"/>
<path fill-rule="evenodd" clip-rule="evenodd" d="M34.0603 63.9498C34.0573 63.8611 32.3758 63.7108 32.356 63.7787C32.3504 63.7873 32.3477 63.7968 32.3449 63.8066C32.0751 64.7377 31.1913 65.3348 30.2506 65.221C30.1965 65.2144 30.1416 65.2184 30.089 65.2327C29.5072 65.392 29.184 65.7305 29.1253 66.2529C30.7682 66.4752 32.4369 66.4346 34.1335 66.1102L34.0603 63.9498ZM25.5426 52.5837C25.5826 52.505 24.1923 51.5233 24.1426 51.5725C24.1339 51.5773 24.1261 51.5835 24.1195 51.5909C23.4369 52.2644 22.3809 52.3364 21.6174 51.7615C21.5734 51.7284 21.5239 51.7041 21.4712 51.6898C20.8885 51.534 20.4445 51.6648 20.1422 52.0895C21.4642 53.1143 22.9351 53.9234 24.5669 54.4998L25.5426 52.5837Z" fill="#0B4870"/>
<path fill-rule="evenodd" clip-rule="evenodd" d="M43.5317 49.6889C44.3071 49.7201 45.5019 49.4797 46.1323 49.6889C50.1806 51.0324 48.8093 56.0356 44.2422 56.0155C36.9017 55.9832 36.8141 54.8082 34.3863 62.7121L32.6074 62.5383C32.0268 51.3721 32.6706 49.2512 43.5317 49.6889Z" fill="#0E538C"/>
<path fill-rule="evenodd" clip-rule="evenodd" d="M44.5949 45.5361C44.5949 45.5361 45.7327 46.3273 46.2432 45.7658C46.7536 45.2044 46.3997 46.9189 46.3997 46.9189L45.8194 47.5456L44.7686 46.5127L43.705 45.3492L44.5949 45.5361ZM50.5008 40.1637C49.762 39.3112 48.4322 37.8147 48.4322 37.8147C48.4322 37.8147 46.1401 38.573 46.3997 40.0407C46.6592 41.5087 46.8097 42.705 46.8097 42.705L49.7499 41.8757C49.7499 41.8757 51.2396 41.0161 50.5008 40.1637Z" fill="#FCD2B1"/>
<path fill-rule="evenodd" clip-rule="evenodd" d="M46.3933 40.0408C46.3933 40.0408 47.1608 47.6942 44.4105 48.2845L44.2421 49.6889C44.2421 49.6889 46.7771 49.0062 47.3314 47.8472C47.8857 46.6883 48.5571 40.8788 48.5571 40.8788C47.5267 40.9586 46.7777 40.7115 46.3933 40.0408Z" fill="#0B4870"/>
<path fill-rule="evenodd" clip-rule="evenodd" d="M43.6525 33.6363C42.6446 34.3841 42.2611 35.7254 42.5536 37.043C42.6058 37.2775 42.8436 38.3898 43.1324 38.8174C44.5906 40.9762 47.034 40.4104 47.9508 39.7302C49.3648 38.6811 49.5497 36.4639 48.3636 34.7823C47.1774 33.1006 45.0664 32.5872 43.6525 33.6363Z" fill="#FFE3CA"/>
<path fill-rule="evenodd" clip-rule="evenodd" d="M40.5286 35.5612C40.6533 38.2523 44.685 35.6255 44.8306 35.0122C44.809 35.8679 45.2121 36.5323 46.0022 37.0225C46.0022 37.0225 45.8302 37.887 46.5751 38.2788C47.3198 38.6705 48.5087 39.5466 49.145 38.8012C49.5795 38.2919 49.6876 37.1992 49.7832 36.2898C50.1952 32.3679 46.9369 32.8611 46.2274 32.5232C46.2275 32.5232 40.3138 30.9258 40.5286 35.5612Z" fill="#0B4870"/>
<path fill-rule="evenodd" clip-rule="evenodd" d="M45.9131 37.1678C45.9131 36.6828 46.2964 36.2898 46.7693 36.2898C47.242 36.2898 47.6255 36.6828 47.6255 37.1678V37.2529C47.6255 37.7847 47.2051 38.2158 46.6867 38.2158H45.9131V37.1678Z" fill="#FFE3CA"/>
<path fill-rule="evenodd" clip-rule="evenodd" d="M38.8499 41.7092L45.2968 46.9189L44.244 49.6555L37.7972 44.4458L38.8499 41.7092Z" fill="#F7F7F7"/>
<path d="M37.6161 44.3851C37.5841 44.4853 37.5928 44.5069 37.6647 44.5741L44.1093 49.8683L44.3093 49.612L37.9572 44.394L38.8946 41.7092H38.6738L37.6161 44.3851Z" fill="#D3D3D3"/>
<path fill-rule="evenodd" clip-rule="evenodd" d="M44.9052 49.4004C46.1045 49.8884 46.7361 52.48 47.0356 55.4331C58.4203 52.1803 54.63 42.5531 49.9469 39.5293C49.7487 40.5076 49.0823 40.7305 47.9748 40.8788C47.9431 44.0771 47.7575 45.894 44.9052 49.4004Z" fill="#0B4870"/>
<path fill-rule="evenodd" clip-rule="evenodd" d="M45.8666 49.8256C45.5761 49.7036 45.2793 49.5982 44.9775 49.5098C44.852 49.4763 44.7352 49.4147 44.6357 49.3294C44.5362 49.244 44.4565 49.1371 44.4021 49.0163C44.1865 48.5322 43.835 48.1152 43.3394 47.769C43.2462 47.7043 43.1692 47.6178 43.1147 47.5167C43.0293 47.3599 42.912 47.1423 42.912 47.1423C42.8264 46.986 42.7138 46.9175 42.5959 46.919C42.5468 46.9186 42.4985 46.9322 42.4564 46.9581C42.4143 46.9841 42.38 47.0214 42.3572 47.0661C42.3345 47.1107 42.3241 47.161 42.3274 47.2112C42.3307 47.2615 42.3474 47.3099 42.3758 47.3511C42.5269 47.5867 42.7807 47.9563 42.9476 48.199C42.9554 48.2105 42.9595 48.2241 42.9593 48.2381C42.959 48.2521 42.9544 48.2656 42.9462 48.2767C42.938 48.2878 42.9265 48.296 42.9135 48.3C42.9005 48.304 42.8865 48.3037 42.8737 48.299C42.7795 48.2634 42.6783 48.2598 42.573 48.2821C42.4752 48.302 42.3742 48.2981 42.2781 48.2709C42.182 48.2437 42.0935 48.1938 42.0195 48.1253C41.8138 47.9369 41.5753 47.7585 41.299 47.5905C41.1019 47.4706 40.9194 47.7092 40.932 47.9613L42.4448 49.1411C43.6521 49.277 44.5944 49.9433 45.4842 50.7145C45.484 50.7145 46.6379 50.1483 45.8666 49.8256Z" fill="#FCD2B1"/>
<path fill-rule="evenodd" clip-rule="evenodd" d="M48.9286 52.2457C51.4346 52.9914 56.3923 51.3646 53.175 42.8226C53.0138 42.3949 51.8871 41.0635 50.3867 41.6149C49.7916 41.8335 48.5167 42.8316 49.3272 44.6091C51.1037 48.5048 49.5775 49.4411 48.1733 49.8935C48.7952 50.5877 49.1581 51.4037 48.9286 52.2457Z" fill="#0E538C"/>
<path d="M43.1558 44.8192C42.9845 44.8215 42.7964 44.8626 42.7471 45.0234C42.6918 45.2039 42.8664 45.3968 43.0659 45.3596C43.4722 45.2886 43.8822 45.5598 44.2691 45.8325C44.2691 45.8325 44.6077 45.9354 44.668 45.6748C44.7231 45.4362 44.3916 45.263 44.1075 45.1069C43.8116 44.9445 43.4928 44.8146 43.1558 44.8192Z" fill="#FCD2B1"/>
</svg>
