<svg width="391" height="150" viewBox="0 0 391 150" fill="none" xmlns="http://www.w3.org/2000/svg">
<rect width="391" height="150" fill="white"/>
<path d="M235 52.3818V52" stroke="black" stroke-width="3" stroke-linecap="round"/>
<path d="M87.9614 64.5039C96.0056 61.2862 104.239 56.5514 111.124 51.3527C116.486 47.3046 121.677 40.1689 122.621 33.3229C122.921 31.15 122.399 28.7326 121.179 31.4774C119.122 36.1061 117.431 40.8908 115.579 45.6256C111.889 55.0622 108.08 64.4264 104.888 74.0491C101.809 83.3328 98.5628 92.1741 94.3461 101.009C92.342 105.208 90.3978 109.411 88.6826 113.736C88.5873 113.976 87.9958 115.52 87.9614 114.351C87.9008 112.29 87.735 110.45 87.3675 108.412C86.3918 103.001 85.7713 97.5148 84.7161 92.1214C84.5665 91.357 84.2974 90.9535 84.0161 90.2972C83.8876 89.9973 84.5622 89.9319 84.8645 89.8093C90.9317 87.3497 96.7676 84.2951 102.47 81.0914C119.72 71.4004 136.659 60.7975 151.596 47.7467C158.945 41.3258 166.544 34.2242 170.941 25.3685C173.157 20.9048 175.774 15.879 176.923 10.9658C177.006 10.6085 177.569 7.60128 176.308 9.0568C173.737 12.0233 171.254 15.3293 168.905 18.4323C155.727 35.8355 143.792 54.6115 134.245 74.2612C129.181 84.6846 125.3 95.596 123.045 106.969C120.795 118.323 119.823 129.96 118.612 141.46C118.432 143.169 118.124 148.312 118.124 146.593" stroke="black" stroke-width="3" stroke-linecap="round"/>
<path d="M135.305 48.8497C135.917 59.6525 138.099 70.4598 139.272 81.2185C140.903 96.1772 142.657 111.084 143.663 126.102C143.888 129.47 144.087 132.825 144.087 136.199C144.087 136.989 143.669 135.229 143.62 135.054C143.322 133.987 142.731 133.002 142.284 131.999C139.721 126.25 138.716 119.792 137.617 113.651C134.28 94.9995 133.444 76.1083 131.126 57.3343C130.654 53.5075 129.578 49.8413 129.578 45.9861C129.578 45.7162 129.431 44.8617 129.578 44.6498C129.726 44.4366 130.324 44.6872 130.342 44.6922C135.302 46.1293 127.354 43.9836 135.22 46.1346C143.193 48.3147 151.265 50.1808 159.02 53.092C173.219 58.4226 185.702 66.993 195.185 78.8641C198.213 82.653 202.255 87.2952 204.01 91.9728C204.223 92.5434 204.809 93.3308 203.819 93.4364C199.033 93.9468 193.489 92.6859 188.886 92.0365C173.34 89.843 157.841 87.1075 142.178 85.8427C132.536 85.0641 123.01 84.9762 113.5 86.9032C107.634 88.0918 101.888 89.8431 96.191 91.6546C93.1357 92.6262 90.2498 93.6498 87.5791 95.4303" stroke="black" stroke-width="3" stroke-linecap="round"/>
<path d="M174.783 39.5873C171.042 47.2483 168.656 55.3382 165.145 63.0779C163.964 65.6825 162.626 68.2251 161.643 70.8982C160.784 73.2363 160.254 75.672 159.342 77.9928C159.308 78.079 157.582 81.2428 157.441 80.5551C157.129 79.0283 157.65 77.0127 157.941 75.5489C159.542 67.4997 162.031 59.4998 164.645 51.6732C167.214 43.9797 170.601 36.6994 174.75 29.5749C179.981 20.5927 186.069 10.9813 194.36 3.90701C196.056 2.45974 196.415 2.84137 196.077 4.36615C195.396 7.44328 194.871 10.4985 193.526 13.4306C187.597 26.3608 176.711 37.9752 165.128 47.2595C165.091 47.2895 158.004 52.4089 157.691 51.4363C157.427 50.6146 160.124 51.2898 160.243 51.3474C167.251 54.7527 173.041 62.4145 177.451 67.936C186.679 79.4871 193.349 91.9919 198.779 105.245C200.548 109.564 202.009 114.09 204.081 118.309C204.356 118.868 204.498 119.003 204.498 118.502C204.498 117.854 204.368 117.211 204.232 116.576C203.223 111.874 201.625 107.289 200.563 102.594C194.88 77.4721 195.494 51.0924 199.062 25.7388C199.348 23.7109 199.437 19.6223 200.713 17.6074C200.878 17.3475 200.884 18.2018 200.83 18.4961C200.443 20.5863 199.472 22.6128 198.695 24.5983C195.861 31.8442 193.376 39.1898 190.575 46.4449C184.319 62.6423 177.825 78.7701 171.515 94.9517C171.184 95.8002 170.454 97.7157 169.981 98.7581C169.92 98.8928 169.733 99.2554 169.697 99.1136C169.235 97.2656 170.274 93.9945 170.548 92.493C172.784 80.224 175.287 67.9553 178.619 55.8796C181.948 43.8135 185.733 31.39 192.242 20.3179C192.892 19.2116 194.758 14.4698 197.195 15.1191C198.708 15.5223 200.063 16.7828 201.13 17.7259C204.774 20.9477 207.856 24.6777 210.201 28.7454C212.497 32.7273 213.771 36.8365 213.97 41.3054C214.221 46.9692 214.129 53.7955 210.485 58.7086C207.382 62.8918 202.215 65.7658 197.428 68.2026C189.287 72.3463 180.62 75.8124 172.082 79.2517C168.901 80.5331 165.692 81.7822 162.444 82.9249C161.343 83.312 161.43 83.1635 162.394 82.7472C164.074 82.0212 165.623 81.1064 167.196 80.2145C174.887 75.8553 182.358 71.2296 189.607 66.3067C199.636 59.4969 209.576 52.3514 218.272 44.1936C223.367 39.4144 227.664 34.0616 232.312 28.9528C233.156 28.0252 234.017 27.1053 234.847 26.1683C235.024 25.9688 235.516 25.487 235.231 25.487C234.845 25.487 234.456 26.3831 234.347 26.5682C232.197 30.2058 230.307 33.9877 228.31 37.6914C222.152 49.1179 216.518 60.8019 211.035 72.4978C209.984 74.7396 209.049 77.0061 208.1 79.2814C208.098 79.2872 207.338 80.7578 207.7 80.4366C214.005 74.8362 220.205 68.8937 225.943 62.8409C237.333 50.824 246.722 37.1057 254.424 22.9691C255.513 20.9684 256.699 18.9579 257.642 16.8965C258.156 15.7713 256.373 19.0482 255.774 20.1401C241.642 45.9263 227.435 71.7029 213.536 97.588C210.116 103.959 206.546 110.247 202.898 116.517C200.985 119.803 199.15 123.135 196.861 126.233C196.568 126.629 195.75 127.835 195.927 127.388C196.055 127.067 196.293 126.789 196.494 126.5C199.837 121.691 203.246 116.913 206.666 112.147C215.975 99.1777 225.247 86.0911 235.931 73.9641C239.074 70.3965 242.466 66.8478 246.136 63.6851C247.124 62.8342 249.18 61.3059 246.453 62.8705C235.771 68.9996 225.511 75.8252 213.653 80.1552C212.572 80.55 209.137 81.232 210.268 80.9699C212.325 80.4932 217.468 82.3776 218.839 82.7472C231.189 86.077 243.424 89.7187 255.824 92.9077C260.168 94.0248 264.414 95.0818 268.898 95.5737C269.581 95.6487 271.389 96.2659 270.949 95.7959C270.031 94.8176 269.828 91.7991 269.731 91.0563C267.749 75.8125 268.062 60.2198 268.898 44.9193C269.185 39.6524 269.764 34.4434 270.532 29.2194C270.905 26.6808 271.432 24.0874 271.432 21.5176C271.432 21.3518 271.511 20.9917 271.249 20.9399C270.117 20.7165 268.602 23.2088 268.581 23.2357C243.893 54.5236 227.011 90.2679 213.703 126.411C211.886 131.344 210.509 136.454 208.534 141.34C208.446 141.557 207.799 142.453 208.2 141.711C210.997 136.534 213.216 131.148 215.404 125.744C223.675 105.317 230.057 84.248 238.949 64.0258C243.082 54.6265 247.993 45.3159 254.757 37.1582C257.794 33.4957 261.334 30.1465 265.863 27.9456C267.191 27.3003 270.717 25.6083 272.399 26.0498C273.217 26.2643 272.443 27.6223 272.066 28.3011C267.094 37.2546 260.586 45.7766 254.624 54.1911C247.005 64.9432 239.097 75.5318 231.512 86.3019C230.583 87.6214 229.695 88.9641 228.744 90.2713C228.542 90.5485 227.699 90.9189 228.044 91.0415C228.22 91.1043 228.422 91.003 228.611 90.9822C230.489 90.7753 232.37 90.5803 234.247 90.3602C244.547 89.1521 255.044 88.0148 264.629 84.2431C267.908 82.9527 271.107 81.4022 273.933 79.4295C274.08 79.3274 276.127 78.0001 274.55 78.4667C269.701 79.9025 265.203 82.8212 260.994 85.2947C259.284 86.2992 254.464 88.3896 253.19 90.2417C253.067 90.4194 253.657 90.3245 253.89 90.3009C257.487 89.9369 260.251 88.4232 263.261 86.6129C267.81 83.8777 272.602 80.6711 275.201 76.2451C276.95 73.2661 277.62 69.657 277.969 66.3363C278.113 64.9581 277.374 65.0436 276.001 65.2403C272.371 65.7603 270.709 71.3562 269.765 73.9049C268.767 76.5979 270.689 77.5309 273.533 77.8595C280.25 78.6355 283.673 69.9068 285.356 65.6106C285.49 65.2686 287.06 62.0031 286.69 61.345C286.558 61.1103 286.467 61.8323 286.39 62.0855C286.079 63.1031 285.878 63.9356 285.639 65.0033C284.828 68.6315 284.083 72.3252 283.838 76.0229C283.785 76.8343 283.441 79.4726 284.172 80.2589C284.504 80.616 285.292 80.1719 285.506 79.9627C289.634 75.9342 291.069 69.1522 292.159 64.0554C293.789 56.4393 293.942 48.3906 296.345 40.9203" stroke="black" stroke-width="3" stroke-linecap="round"/>
</svg>
