<svg width="82" height="44" viewBox="0 0 82 44" fill="none" xmlns="http://www.w3.org/2000/svg">
<g clip-path="url(#clip0_1046_135)">
<path opacity="0.11" d="M40.3738 43.7309C50.5393 43.7309 58.7802 42.6607 58.7802 41.3405C58.7802 40.0204 50.5393 38.9502 40.3738 38.9502C30.2082 38.9502 21.9673 40.0204 21.9673 41.3405C21.9673 42.6607 30.2082 43.7309 40.3738 43.7309Z" fill="#2A94F4"/>
<path opacity="0.11" d="M59.9562 27.8935C60.176 33.044 54.8902 44.6651 39.4562 43.9702C24.9135 43.3153 10.5229 32.2724 18.677 14.844C26.5567 -1.99797 40.7346 -0.599381 45.7325 0.73443C51.2587 2.2092 67.0458 8.18351 58.0143 18.1269C43.5229 34.0813 59.508 17.3924 59.9562 27.8935Z" fill="#2A94F4"/>
<path d="M33.3072 11.5206L30.0863 8.56604L24.4535 14.154L27.674 17.1082C28.9472 14.7672 30.9104 12.8229 33.3072 11.5206ZM26.0753 23.3802C26.0753 22.0335 26.2809 20.7328 26.662 19.504H22.1944V27.2563H26.662C26.2809 26.0276 26.0753 24.7269 26.0753 23.3802ZM40.3738 9.74043C41.7855 9.74043 43.149 9.93656 44.4371 10.3001V6.03836H36.3104V10.3001C37.5985 9.93656 38.962 9.74043 40.3738 9.74043ZM53.0735 17.1082L56.2941 14.154L50.6612 8.56604L47.4403 11.5206C49.8371 12.8229 51.8003 14.7672 53.0735 17.1082ZM54.0855 19.504C54.4666 20.7328 54.6722 22.0335 54.6722 23.3802C54.6722 24.7269 54.4666 26.0276 54.0855 27.2563H58.5531V19.504H54.0855ZM47.4403 35.2399L50.6612 38.1944L56.2941 32.6064L53.0735 29.6522C51.8003 31.9932 49.8371 33.9375 47.4403 35.2399ZM27.674 29.6521L24.4535 32.6064L30.0863 38.1943L33.3072 35.2398C30.9104 33.9375 28.9472 31.9932 27.674 29.6521ZM40.3738 37.0199C38.962 37.0199 37.5985 36.8238 36.3104 36.4602V40.722H44.4371V36.4602C43.149 36.8239 41.7855 37.0199 40.3738 37.0199Z" fill="#FFBE55"/>
<path d="M55.8972 23.0379C55.7097 14.8608 48.7071 8.2858 40.0901 8.2858C38.2756 8.2858 36.5343 8.58113 34.9111 9.11764C33.7308 9.50782 32.6169 10.031 31.5829 10.663C30.4682 11.3445 29.447 12.153 28.5462 13.0713C27.566 14.0704 26.7243 15.1947 26.0556 16.4194C24.9194 18.5003 24.274 20.8641 24.274 23.3732C24.274 23.8479 24.299 24.317 24.3438 24.7806C24.9643 31.1764 29.7682 36.4154 36.1221 37.9814C37.3902 38.2939 38.7196 38.4606 40.0901 38.4606C48.825 38.4606 55.9061 31.7057 55.9061 23.3732C55.9061 23.2608 55.8999 23.1498 55.8972 23.0379ZM40.0901 33.1965C39.1954 33.1965 38.3275 33.0873 37.5 32.8827C33.2841 31.8409 30.1229 28.314 29.8221 24.0393C29.8065 23.8187 29.7924 23.5976 29.7924 23.3732C29.7924 21.7029 30.2328 20.1323 31.0038 18.7556C31.4865 17.8938 32.103 17.1117 32.8216 16.427C33.3295 15.943 33.8917 15.5119 34.4954 15.1364C35.2263 14.6816 36.0192 14.31 36.8641 14.0443C37.9049 13.7165 38.994 13.5496 40.0901 13.5498C45.6595 13.5498 50.1933 17.7681 50.3789 23.0379C50.3829 23.1494 50.3878 23.2607 50.3878 23.3732C50.3878 28.7984 45.7773 33.1965 40.0901 33.1965Z" fill="#FFBE55"/>
<path fill-rule="evenodd" clip-rule="evenodd" d="M32.4564 30.2557C32.4564 30.2557 31.9276 30.6323 31.6572 30.8248C31.6117 30.8571 31.5569 30.8753 31.5002 30.8767C31.4434 30.8782 31.3876 30.8629 31.3404 30.833C31.287 30.7991 31.2414 30.7551 31.2064 30.7038C31.1715 30.6525 31.1479 30.5949 31.1371 30.5346C31.1263 30.4743 31.1286 30.4125 31.1438 30.3531C31.159 30.2936 31.1868 30.2378 31.2254 30.1889L31.6948 29.5959L32.4564 30.2557Z" fill="#FCD2B1"/>
<path fill-rule="evenodd" clip-rule="evenodd" d="M41.7766 27.0402C42.1708 27.3169 42.8779 27.603 43.135 27.9172C44.7868 29.9352 43.0433 31.4856 40.6643 29.9357C36.8408 27.4447 37.2503 26.5135 32.423 30.5692L31.3293 29.7526C34.8747 24.1314 36.2537 23.1649 41.7766 27.0402Z" fill="#0E538C"/>
<path fill-rule="evenodd" clip-rule="evenodd" d="M37.2996 36.5242L36.9872 37.628C36.9704 37.6875 36.9315 37.7392 36.8779 37.7735C36.8242 37.8078 36.7593 37.8223 36.6952 37.8145C36.608 37.8038 36.5288 37.7606 36.475 37.6942C36.4212 37.6279 36.3973 37.5439 36.4084 37.4607L36.5808 36.1749L37.2996 36.5242Z" fill="#FCD2B1"/>
<path fill-rule="evenodd" clip-rule="evenodd" d="M37.2534 37.5172C37.2515 37.4652 36.1909 37.377 36.1784 37.4169C36.1749 37.4219 36.1732 37.4275 36.1714 37.4332C36.0013 37.9795 35.4437 38.3298 34.8504 38.263C34.8163 38.2591 34.7817 38.2615 34.7484 38.2699C34.3815 38.3634 34.1776 38.5619 34.1406 38.8684C35.1769 38.9988 36.2294 38.975 37.2996 38.7847L37.2534 37.5172ZM31.8807 30.8491C31.9059 30.803 31.029 30.227 30.9976 30.2559C30.9922 30.2587 30.9873 30.2624 30.9831 30.2667C30.5525 30.6618 29.8864 30.7041 29.4048 30.3668C29.3771 30.3474 29.3458 30.3331 29.3126 30.3247C28.9451 30.2333 28.665 30.3101 28.4743 30.5592C29.3082 31.1604 30.236 31.6351 31.2653 31.9733L31.8807 30.8491Z" fill="#0B4870"/>
<path fill-rule="evenodd" clip-rule="evenodd" d="M43.2277 29.1508C43.7168 29.1691 44.4704 29.0281 44.8681 29.1508C47.4216 29.939 46.5567 32.8742 43.6759 32.8624C39.0457 32.8435 38.9904 32.1541 37.4591 36.7911L36.337 36.6892C35.9708 30.1383 36.3769 28.894 43.2277 29.1508Z" fill="#0E538C"/>
<path fill-rule="evenodd" clip-rule="evenodd" d="M43.8983 26.7145C43.8983 26.7145 44.616 27.1787 44.938 26.8493C45.26 26.5199 45.0368 27.5257 45.0368 27.5257L44.6707 27.8934L44.0079 27.2875L43.337 26.6049L43.8983 26.7145ZM47.6236 23.5627C47.1576 23.0626 46.3188 22.1846 46.3188 22.1846C46.3188 22.1846 44.873 22.6295 45.0368 23.4906C45.2004 24.3518 45.2954 25.0536 45.2954 25.0536L47.15 24.5671C47.15 24.5671 48.0896 24.0628 47.6236 23.5627Z" fill="#FCD2B1"/>
<path fill-rule="evenodd" clip-rule="evenodd" d="M45.0327 23.4906C45.0327 23.4906 45.5168 27.9806 43.782 28.3269L43.6758 29.1508C43.6758 29.1508 45.2748 28.7503 45.6244 28.0704C45.9741 27.3904 46.3976 23.9822 46.3976 23.9822C45.7476 24.029 45.2752 23.8841 45.0327 23.4906Z" fill="#0B4870"/>
<path fill-rule="evenodd" clip-rule="evenodd" d="M43.3039 19.7333C42.6681 20.172 42.4262 20.9589 42.6107 21.7319C42.6436 21.8695 42.7937 22.522 42.9758 22.7729C43.8956 24.0394 45.4368 23.7074 46.0151 23.3084C46.907 22.6929 47.0237 21.3922 46.2755 20.4056C45.5273 19.419 44.1957 19.1178 43.3039 19.7333Z" fill="#FFE3CA"/>
<path fill-rule="evenodd" clip-rule="evenodd" d="M41.3334 20.8626C41.4121 22.4414 43.9552 20.9003 44.047 20.5405C44.0334 21.0425 44.2877 21.4323 44.786 21.7199C44.786 21.7199 44.6775 22.2271 45.1474 22.4569C45.6171 22.6867 46.367 23.2007 46.7684 22.7634C47.0425 22.4646 47.1107 21.8236 47.1709 21.29C47.4308 18.9892 45.3756 19.2785 44.9281 19.0803C44.9281 19.0803 41.198 18.1432 41.3334 20.8626Z" fill="#0B4870"/>
<path fill-rule="evenodd" clip-rule="evenodd" d="M44.7298 21.8051C44.7298 21.5206 44.9716 21.29 45.2698 21.29C45.568 21.29 45.8099 21.5206 45.8099 21.8051V21.855C45.8099 22.167 45.5448 22.4199 45.2177 22.4199H44.7298V21.8051Z" fill="#FFE3CA"/>
<path d="M40.1635 24.4694L44.2785 27.6013L44.4036 27.4502L40.3468 24.3938C40.2772 24.3713 40.2052 24.4191 40.1635 24.4694Z" fill="#D3D3D3"/>
<path fill-rule="evenodd" clip-rule="evenodd" d="M40.2746 24.4694L44.3411 27.5258L43.677 29.1312L39.6105 26.0749L40.2746 24.4694Z" fill="#F7F7F7"/>
<path d="M43.5818 29.1158C43.5474 29.2725 43.6 29.3197 43.7738 29.2146L44.4672 27.5258C44.4367 27.4364 44.3633 27.4247 44.247 27.4908L43.5818 29.1158Z" fill="#D3D3D3"/>
<path d="M39.4963 26.0393C39.4761 26.098 39.4816 26.1107 39.527 26.1501L43.592 29.2561L43.7182 29.1057L39.7115 26.0445L40.3028 24.4694H40.1635L39.4963 26.0393Z" fill="#D3D3D3"/>
<path fill-rule="evenodd" clip-rule="evenodd" d="M44.0941 28.9816C44.8505 29.2679 45.2489 30.7883 45.4378 32.5208C52.619 30.6125 50.2281 24.9645 47.2742 23.1905C47.1491 23.7644 46.7288 23.8952 46.0302 23.9822C46.0102 25.8586 45.8932 26.9245 44.0941 28.9816Z" fill="#0B4870"/>
<path fill-rule="evenodd" clip-rule="evenodd" d="M44.7005 29.231C44.5172 29.1595 44.33 29.0976 44.1397 29.0458C44.0605 29.0261 43.9868 28.99 43.9241 28.9399C43.8613 28.8898 43.811 28.8271 43.7767 28.7562C43.6407 28.4722 43.419 28.2276 43.1064 28.0245C43.0476 27.9865 42.999 27.9358 42.9647 27.8765C42.9108 27.7845 42.8368 27.6568 42.8368 27.6568C42.7828 27.5651 42.7118 27.5249 42.6374 27.5258C42.6064 27.5256 42.576 27.5335 42.5494 27.5488C42.5228 27.564 42.5012 27.5859 42.4869 27.6121C42.4725 27.6383 42.466 27.6678 42.4681 27.6973C42.4701 27.7268 42.4807 27.7551 42.4986 27.7793C42.5939 27.9175 42.754 28.1343 42.8593 28.2768C42.8642 28.2835 42.8668 28.2915 42.8666 28.2997C42.8664 28.3079 42.8636 28.3158 42.8584 28.3223C42.8532 28.3289 42.846 28.3336 42.8377 28.336C42.8295 28.3384 42.8207 28.3382 42.8126 28.3354C42.7532 28.3145 42.6894 28.3124 42.623 28.3255C42.5613 28.3372 42.4976 28.3349 42.437 28.3189C42.3764 28.303 42.3205 28.2737 42.2738 28.2335C42.1441 28.123 41.9937 28.0183 41.8194 27.9198C41.695 27.8494 41.5799 27.9894 41.5879 28.1373L42.5421 28.8294C43.3036 28.9092 43.898 29.3001 44.4592 29.7525C44.4592 29.7525 45.187 29.4203 44.7005 29.231Z" fill="#FCD2B1"/>
<path fill-rule="evenodd" clip-rule="evenodd" d="M46.3345 29.2146C45.7292 29.396 45.0185 29.3365 44.7176 29.2406C44.5147 29.1759 44.1932 29.5891 44.4173 29.7133C44.9125 29.9877 45.8749 30.4353 46.6971 30.6699C46.8422 30.1753 46.5523 29.6324 46.3345 29.2146Z" fill="#FCD2B1"/>
<path fill-rule="evenodd" clip-rule="evenodd" d="M46.6319 30.6508C48.2126 31.0883 51.3398 30.1339 49.3104 25.1226C49.2087 24.8717 48.498 24.0906 47.5516 24.4141C47.1762 24.5423 46.3721 25.1279 46.8833 26.1707C48.0039 28.4562 47.0412 29.0054 46.1555 29.2708C46.5477 29.6781 46.7766 30.1568 46.6319 30.6508Z" fill="#0E538C"/>
<path d="M42.9906 26.294C42.8825 26.2953 42.7639 26.3194 42.7328 26.4137C42.6979 26.5196 42.8081 26.6328 42.9339 26.611C43.1901 26.5693 43.4488 26.7285 43.6928 26.8884C43.6928 26.8884 43.9064 26.9488 43.9444 26.7959C43.9792 26.6559 43.7701 26.5543 43.5909 26.4627C43.4042 26.3674 43.2032 26.2913 42.9906 26.294Z" fill="#FCD2B1"/>
</g>
<defs>
<clipPath id="clip0_1046_135">
<rect width="82" height="44" fill="white"/>
</clipPath>
</defs>
</svg>
